<svg width="30" height="30" viewBox="0 0 30 30" fill="none" xmlns="http://www.w3.org/2000/svg">
<path d="M18.9221 2.50131L29.395 22.5127C29.7791 23.2466 29.9999 24.0974 29.9999 25.0057C29.9999 27.7638 27.973 30 25.4727 30H14.9999L11.3782 15L14.9999 0C16.6769 0 18.1398 1.00664 18.9221 2.50131Z" fill="#3B4145"/>
<path d="M11.0778 2.50131L0.604863 22.5127C0.22084 23.2466 0 24.0974 0 25.0057C0 27.7638 2.02688 30 4.52719 30H15V0C13.323 0 11.8601 1.00664 11.0778 2.50131Z" fill="#525A61"/>
<path d="M27.8272 23.5122L17.3544 3.50094C16.8823 2.59863 16.0156 2.02928 15.0781 2L24.0353 28.0031H25.4731C26.9707 28.0031 28.1894 26.6587 28.1894 25.0065C28.1894 24.4817 28.0638 23.965 27.8272 23.5122Z" fill="#FFB751"/>
<path d="M26.0657 23.5122C26.2704 23.965 26.3784 24.4818 26.3784 25.0065C26.3784 26.6587 25.3275 28.0031 24.0351 28.0031H4.52732C3.02973 28.0031 1.81104 26.6587 1.81104 25.0065C1.81104 24.4818 1.9366 23.965 2.1732 23.5122L12.646 3.50099C13.1313 2.57405 14.0332 1.99805 15.0001 1.99805C15.0261 1.99805 15.0521 1.99869 15.078 2.00005C15.8826 2.0347 16.6257 2.60269 17.0307 3.50099L26.0657 23.5122Z" fill="#FFD764"/>
<path d="M15 21.3428V24.6723C15.8336 24.6723 16.5091 23.9271 16.5091 23.0075C16.5091 22.0879 15.8336 21.3428 15 21.3428Z" fill="#3B4145"/>
<path d="M14.9998 21.3428C15.1664 21.3428 15.3016 22.0879 15.3016 23.0076C15.3016 23.9272 15.1664 24.6724 14.9998 24.6724C14.1662 24.6724 13.4907 23.9272 13.4907 23.0076C13.4907 22.0879 14.1662 21.3428 14.9998 21.3428Z" fill="#525A61"/>
<path d="M15 7.02734V19.3467C15.8336 19.3467 16.5091 18.6009 16.5091 17.6819V8.69215C16.5091 7.77251 15.8336 7.02734 15 7.02734Z" fill="#3B4145"/>
<path d="M14.9998 7.02734C15.1664 7.02734 15.3016 7.77251 15.3016 8.69215V17.6819C15.3016 18.6008 15.1664 19.3467 14.9998 19.3467C14.1662 19.3467 13.4907 18.6009 13.4907 17.6819V8.69215C13.4907 7.77251 14.1662 7.02734 14.9998 7.02734Z" fill="#525A61"/>
</svg>
