<svg width="20" height="25" viewBox="0 0 20 25" fill="none" xmlns="http://www.w3.org/2000/svg">
<path d="M19.2308 14.5105C18.8059 14.5105 18.4615 14.9801 18.4615 15.5595V21.8531C18.4615 22.4325 18.1171 22.9021 17.6923 22.9021H2.30773C1.88288 22.9021 1.53849 22.4325 1.53849 21.8531V15.5595C1.53849 14.9801 1.19409 14.5105 0.769245 14.5105C0.344396 14.5105 0 14.9801 0 15.5595V21.8531C0 23.5911 1.03319 25 2.30769 25H17.6923C18.9668 25 20 23.5911 20 21.8531V15.5595C20 14.9801 19.6556 14.5105 19.2308 14.5105Z" fill="black" fill-opacity="0.81"/>
<path d="M15.7196 12.9693C15.3637 12.6887 14.7995 12.6887 14.4436 12.9693L11.4175 15.439V0.749991C11.4175 0.335776 11.0063 0 10.4991 0C9.99187 0 9.58069 0.335776 9.58069 0.749991V15.439L6.5564 12.9693C6.19156 12.6816 5.61017 12.6899 5.25781 12.9878C4.91406 13.2784 4.91406 13.7392 5.25781 14.0298L9.84975 17.7797C10.208 18.0729 10.7895 18.0735 11.1486 17.781L11.1502 17.7797L15.7422 14.0298C16.0946 13.7319 16.0845 13.2571 15.7196 12.9693Z" fill="black" fill-opacity="0.81"/>
</svg>
