<?xml version="1.0" encoding="utf-8"?>
<!-- Generator: Adobe Illustrator 16.0.0, SVG Export Plug-In . SVG Version: 6.00 Build 0)  -->
<!DOCTYPE svg PUBLIC "-//W3C//DTD SVG 1.1//EN" "http://www.w3.org/Graphics/SVG/1.1/DTD/svg11.dtd">
<svg version="1.1" id="_x2018_ëîé_x5F_5" xmlns="http://www.w3.org/2000/svg" xmlns:xlink="http://www.w3.org/1999/xlink"
	 x="0px" y="0px" width="407.5px" height="650px" viewBox="0 0 407.5 650" enable-background="new 0 0 407.5 650"
	 xml:space="preserve">
<path opacity="0.6" fill="#D5D4D4" d="M310.229,614.063c3.888-1.584,6.069-3.357,6.069-5.23c0-6.719-28.001-12.164-62.541-12.164
	s-62.54,5.445-62.54,12.164c0,0.551,0.207,1.094,0.574,1.627c-83.827,1.027-149.06,8.988-149.06,18.656
	c0,10.365,74.972,18.766,167.456,18.766s167.454-8.4,167.454-18.766C377.641,622.953,351.146,617.484,310.229,614.063z"/>
<polyline fill="#D2A887" points="262.873,506.418 254.763,525.057 244.642,524.926 255.208,503.846 "/>
<polyline fill="#E1BA99" points="267.31,505.836 259.199,524.477 249.079,524.346 259.645,503.266 "/>
<path fill="#F6D1AF" d="M342.423,238.448c0,0,4.604-2.659,5.411-2.998c0.803-0.33,1.341-0.93,1.75-0.884
	c0.409,0.043,4.21-1.698,4.656-2.006c0.448-0.315,1.378-1.283,2.231-1.491c0.849-0.208,4.731-3.305,5.966-2.644
	c1.236,0.66,2.254,1.718,0.138,3.813c-2.113,2.09-5.293,3.305-6.053,4.058c-0.571,0.562-4.344,1.86-5.286,2.356
	c-0.939,0.495-5.324,3.316-6.301,3.569c-0.976,0.258-0.732-0.384-1.135,0.108"/>
<path fill="#F6D1AF" d="M343.063,243.144c0,0,5.285-2.079,6.347-2.46c1.063-0.376,3.368-1.606,4.018-1.853
	c0.646-0.246,6.274-3.439,7.127-3.974c0.859-0.538,2.475-0.722,2.98,1.288c0.503,2.01-3.22,3.178-4.062,3.577
	c-0.842,0.403-2.069,1.526-3.388,2.233c-1.318,0.711-4.047,2.113-5.163,2.621c-1.122,0.511-3.203,0.872-4.66,2.01
	c-1.453,1.138-1.551,1.26-2.081,1.207c-0.528-0.055-1.201-0.435-1.524-0.738"/>
<path fill="#F6D1AF" d="M345.001,246.917c0,0,2.021-0.488,3.001-0.922c0.976-0.431,5.771-1.622,6.556-1.898
	c0.784-0.27,3.146-1.36,4.205-0.854c1.057,0.512,1.679,1.998-0.083,3.151c-1.768,1.149-3.695,1.307-4.998,1.883
	c-1.307,0.577-2.039,0.765-3.841,1.426c-1.802,0.657-0.517,0.258-3.739,0.903c-3.226,0.646-2.659,0.746-3.451,0.661"/>
<path fill="#754C28" d="M132.285,310.289l20.793-203.928c0.213-2.114-0.857-3.951-2.392-4.104l-0.563-0.058
	c-1.53-0.158-2.948,1.434-3.159,3.551l-20.771,203.705C126.193,309.455,127.959,311.992,132.285,310.289"/>
<path fill="#C3996B" d="M148.893,102.464c-0.995,0.522-1.779,1.76-1.933,3.282l-20.771,203.705c0,0,0.465,0.661,1.491,1.084
	L148.893,102.464z"/>
<path fill="#603813" d="M151.399,102.479L129.16,310.862c0.842,0.05,1.874-0.081,3.125-0.573l20.793-203.924
	C153.255,104.597,152.533,103.041,151.399,102.479"/>
<path fill="#1C293E" d="M151.668,387.205c0,0-12.396,92.18-12.978,97.814c-0.588,5.633-37.91,100.68-37.91,100.68l13.833,5.734
	c0,0,49.77-96.17,50.636-101.764c0.92-5.941,36.609-122.795,27.955-116.422c-2.123,1.566,10.979-22.414,10.979-22.414l-3.557-20.645
	"/>
<path fill-rule="evenodd" clip-rule="evenodd" fill="#1C293E" d="M308.281,402.719c-4.856-5.859-94.83-32.592-94.83-32.592
	l-31.179,26.182l74.677,16.008c-0.079,0.008-0.131,0.02-0.131,0.02l19.083,4.111c0,0,2.763,0.818,2.805,1.533
	c0.048,0.715,2.366,0.068,1.893,1.207c-0.471,1.137,1.362,0.615,0.547,1.598c-0.814,0.984-1.625,0.781-0.991,1.557
	c0.63,0.773,0.375-0.195,0.63,0.773c0.24,0.914-4.6,3.324-2.215,6.371l-27.795,74.971c0,0,20.293,10.17,20.62-2.137
	C271.718,490.023,317.034,413.277,308.281,402.719"/>
<path fill="#F6D1AF" d="M142.313,260.384c-4.794-1-9.583-1.991-14.377-2.994c-4.379-0.911-8.686-2.071-13.159-2.609
	c-2.162-0.262-4.201-0.223-6.36-0.254c-1.314-0.027-3.286,0.008-4.349-0.914c-0.473-0.408,0.139-1.022,0.361-1.604
	c0,0,14.097-10.472,14.94-11.306c4.183-4.12,11.27-15,17.89-22.524c1.188-1.353-7.863-2.448-7.863-2.448
	c-2.586,1.688-5.167,3.378-7.75,5.062c-4.608,3.017-9.216,6.025-13.824,9.043c-2.685,1.756-5.38,3.693-7.465,6.191
	c-1.137,1.356-2.008,2.905-3.011,4.357c-1.168,1.691-2.373,3.359-3.534,5.054l-4.116,5.999c0,0-1.051,3.205-1.656,4.362
	c-0.607,1.152-2.143,2.54,0.44,4.631c2.586,2.091,13.762,6.855,19.02,8.289c5.253,1.426,39.428,6.241,39.428,6.241"/>
<path fill="#F6D1AF" d="M129.494,215.812c0,0,4.191-6.479-3.29-7.31c-4.667-0.522-3.353-3.797-2.527-4.063
	c0.826-0.265,1.559-2.482,0.236-3.224c-1.326-0.734-0.611-3.31-0.044-3.951c0.567-0.638,1.504-0.042,1.802-0.511
	c0.3-0.466-1.447-2.894-0.071-4.151c1.382-1.256,1.741-1.817,2.948-1.444c1.212,0.373-0.031-2.103,1.174-3.124
	c1.207-1.022,2.915-2.099,4.266-0.158c1.345,1.938,2.014,5.75,4.871,6.146c2.854,0.396,3.128,0.653,4.6-0.046
	c1.468-0.696,4.542-1.484,4.719,1.383c0.248,3.978,0.223,4.815-1.476,5.792c-1.701,0.972-2.959,7.544-3.146,9.323
	c-0.185,1.779-4.938,7.048-6.489,7.689"/>
<polyline fill="#4DA1D7" points="177.859,254.166 167.523,257.613 133.581,256.302 130.741,286.255 169.823,291.889 "/>
<path fill="#3F95C5" d="M152.712,291.835c0.755-0.88,0.198-4.186,0.267-4.861c0.126-1.233,2.744-9.323,3.168-9.992l6.195-18.573
	c0,0-8.954,7.437-10.747,9.292c-1.794,1.86-4.333,4.893-3.803,6.637c0.532,1.749,0.834,3.113-1.833,5.685
	c-2.669,2.567-5.196,5.507-5.196,5.507s-2.521-1.418-2.539,0.45c-0.004,0.546-6.381,0.185-6.37,0.553"/>
<path fill="#4DA1D7" d="M152.979,286.97l3.172-9.992C155.727,277.651,153.105,285.741,152.979,286.97"/>
<polygon fill="#F4F4F4" points="140.687,256.302 131.108,255.311 122.73,273.946 123.199,284.826 131.794,286.678 132.93,272.651 
	"/>
<path fill="#F6D1AF" d="M233.318,255.357l32.702,0.3c0,0,12.09-3.64,13.251-3.397c1.165,0.238,39.691-6.18,41.407-6.71
	c1.716-0.538,1.051,8.171,1.051,8.171l-43.836,17.878l-11.625-2.275l-30.16,0.315"/>
<path fill="#E9B78D" d="M269.829,266.433c0,0,5.238,2.675,8.09,2.613C277.919,269.046,272.612,271.048,269.829,266.433"/>
<path fill="#F6D1AF" d="M320.681,245.549c0,0,3.316-8.555,3.576-8.766c0.259-0.212,7.99-4.716,8.925-4.885
	c0.936-0.173,3.936,1.507,4.097,1.698c0.158,0.192,6.379-2.628,7.135-3.619c0.755-0.992,3.735-1.945,5.272-2.914
	c1.645-1.029,2.787-1.337,3.59-2.232c0.807-0.896,3.631-1.979,4.313,0.449c0.684,2.43-3.263,3.598-5.274,4.966
	c-0.553,0.376-2.416,1.749-3.91,2.579c-0.536,0.295-1.48,0.58-1.591,0.726c-0.409,0.53-5.375,4.243-5.375,4.243
	s0.972,0.5,1.432,0.772c0.461,0.265,1.768,2.271,1.303,3.294c-0.459,1.018-0.98,2.609-0.98,2.609s0.458,0.676,0.669,1.402
	c0.165,0.568,0.43,0.86,0.543,1.064c0.263,0.473,0.075,2.693-0.732,3.186c-0.807,0.5,0.279-1.26,0.342-0.584
	c0.063,0.673,1.67,1.372,0.607,1.307c-1.059-0.069-11.166,4.446-14.734,3.989c-0.571-0.077-7.25-0.884-8.159-1.114"/>
<path fill="#F6D1AF" d="M181.131,254.581c0,0-3.417-11.083,0.417-17.036c1.193-1.853,2.673-2.563,4.667-2.648
	c4.848-0.215,9.756,0.869,14.435,2.021c1.213,0.293,3.613,1.022,4.813,1.369c0.598,0.169,1.195,0.338,1.795,0.515
	c0.507,0.138,0.984,0.357,1.506,0.153c0.811-0.311,1.52-0.902,1.96-1.652c0.39-0.661,0.567-1.434,0.523-2.19
	c-0.02-0.357-0.069-0.761-0.2-1.092c-0.138-0.36-0.449-0.599-0.649-0.93c-0.259-0.423-0.357-0.941-0.397-1.434
	c-0.046-0.642,0.011-1.311,0.157-1.94c0,0,1.595-1.856,1.574-2.406c-0.019-0.545-1.026-1.438-1.026-1.438
	c-5.156,0.577-10.599-1.321-9.225-0.487c1.314,0.792,8.966,0.403,9.367,0.188c0.279-0.15,0.715-0.988,0.429-1.584
	c-0.532-1.095-1.161-3.047-1.165-3.055c0.039,0.08,2.021-1.342,2.179-1.477c0.623-0.541,1.366-1.287,1.416-2.163
	c0.104-1.753-2.002-1.829-3.196-2.167c-2.1-0.596-4.395-2.033-3.824-4.354c0.955-3.913,0.259-10.681-0.198-14.124
	c-0.177-1.321-0.782-3.313-0.782-3.313s-20.559-2.951-23.912-2.467s-11.612,2.798-13.222,3.813
	c-1.614,1.014-4.884,4.818-5.107,7.878c-0.225,3.06-0.911,6.895-0.134,8.485c0.774,1.599,0.646,14.45,0.646,14.45
	s4.435,15.08,1.766,26.137"/>
<path fill="#F1C8A5" d="M165.753,251.599c0.02,0.015,0.044,0.034,0.063,0.049l2.742,0.527c0.206-0.219,0.378-0.538,0.492-0.992
	c1.422-5.688-1.648-20.564-1.648-20.564l-2.062,0.75C166.368,236.764,167.355,244.912,165.753,251.599"/>
<path fill="#625E5C" d="M164.998,230.792c0,0-11.633-13.566-18.287-32.178c0,0,7.588-19.766,11.429-22.518
	c3.839-2.755,22.347-4.242,26.26-2.989c3.916,1.257,21.738,7.151,20.946-3.59c0.021,0.308,2.732,2.198,4.231,4.974
	c0.732,1.353,1.33,5.396,1.543,6.933c0.634,4.657-3.42,5.188-3.413,6.345c0.015,3.078,3.038,3.217,0.917,4.6
	c-3.845,2.506-8.689-2.305-11.848,1.016c-2.755,2.901-1.835,13.804-6.147,13.289c0,0-2.208,6.656-2.152,9.246
	c-1.08,0.154-2.158,0.315-3.236,0.469c-0.208,0.031-0.5,0.185-0.703,0.093c-0.24-0.116-0.398-0.615-0.492-0.842
	c-0.607-1.411-1.217-2.817-1.835-4.224c-0.872-1.979-2.55-3.098-4.631-3.528c-1.806-0.376-3.645-0.03-5.188,0.991
	c-1.649,1.092-2.848,2.768-3.778,4.485c-3.447,6.392-1.51,9.323-0.842,15.483L164.998,230.792z"/>
<path fill="#E9B78D" d="M205.435,208.787c0,0-0.33-1.837-3.101-0.934c-2.775,0.903-2.723,4.562-0.917,5.215
	c1.806,0.653,4.104-0.465,4.321-1.434C205.954,210.666,205.911,209.617,205.435,208.787"/>
<path fill="#FCFAE4" d="M205.508,209.378c0,0-0.327-1.813-3.063-0.918c-2.738,0.895-2.688,4.508-0.905,5.153
	c1.783,0.646,4.054-0.461,4.266-1.422C206.023,211.239,205.975,210.201,205.508,209.378"/>
<path fill="#515252" d="M205.834,211.062c-0.067,0.906-0.657,1.603-1.318,1.557c-0.661-0.051-1.141-0.822-1.078-1.726
	c0.067-0.911,0.657-1.606,1.318-1.557C205.417,209.382,205.902,210.159,205.834,211.062"/>
<path fill="#231F20" d="M205.704,210.943c-0.036,0.473-0.344,0.834-0.689,0.811c-0.342-0.03-0.594-0.43-0.56-0.899
	c0.033-0.476,0.344-0.837,0.686-0.814C205.487,210.063,205.738,210.47,205.704,210.943"/>
<path fill="#FFFFFF" d="M204.75,210.259c-0.015,0.219-0.161,0.388-0.323,0.38c-0.161-0.016-0.282-0.204-0.267-0.423
	c0.02-0.223,0.162-0.392,0.327-0.377C204.649,209.847,204.766,210.04,204.75,210.259"/>
<path fill="#F7DDC7" d="M210.511,215.128c-1.75-0.492-3.627-1.576-3.879-3.268l-0.046,0.016c0,0,0.113,2.813,4.052,4.009
	c3.947,1.194-0.528,5.046-0.528,5.046c0.041,0.08,2.023-1.338,2.181-1.469c0.623-0.545,1.366-1.291,1.416-2.167
	C213.811,215.542,211.705,215.466,210.511,215.128"/>
<path fill="#625E5C" d="M190.007,208.949l5.069-2.664l2.467-8.316c0,0-1.701-3.281-4.179-3.4c-2.479-0.123-6.937,10.237-7.02,10.529
	c-0.083,0.3-0.115,1.572-0.115,1.572"/>
<path fill="#E9B78D" d="M165.53,210.248c0,0-1.055,3.051,5.062,8.466c0,0,1.389,0.991,1.994,4.001
	c0.605,3.013,2.982,3.351,4.124,1.837c1.137-1.515-0.959-9.831-0.959-9.831l-4.637-3.62"/>
<path fill="#F7D1AC" d="M182.874,216.565c-0.008-0.354-1.524-2.729-1.457-2.782c-0.063-0.046-0.098-0.115-0.129-0.185
	c-0.025-0.046-0.044-0.092-0.067-0.138c-0.202-0.339-0.398-0.692-0.626-1.016c-0.098-0.138-0.188-0.284-0.296-0.422
	c-0.133-0.17-0.263-0.338-0.404-0.508c-0.202-0.227-0.397-0.461-0.615-0.676c-0.255-0.25-0.5-0.516-0.774-0.742
	c-1.332-1.1-2.751-2.063-4.412-2.578c-1.46-0.454-3.015-0.654-4.539-0.462c-1.322,0.169-3.017,0.592-3.726,1.853
	c-0.177,0.315-0.288,0.661-0.334,1.015c-0.06,0.438-0.015,0.868,0.125,1.291c0.075,0.224,0.175,0.438,0.28,0.646
	c0.106,0.204,0.237,0.396,0.354,0.592c0.094,0.085,0.142,0.2,0.221,0.301c0.079,0.107,0.162,0.215,0.244,0.314
	c0.039,0.023,0.05,0.069,0.075,0.107c0.086,0.085,0.154,0.188,0.236,0.285c0.094,0.104,0.192,0.199,0.279,0.307
	c0.079,0.097,0.162,0.185,0.244,0.27c0.098,0.1,0.192,0.195,0.288,0.292c0.148,0.153,0.306,0.3,0.459,0.453
	c0.177,0.177,0.367,0.339,0.551,0.508c0.177,0.169,0.357,0.33,0.538,0.483c0.104,0.089,0.206,0.178,0.308,0.266
	c0.161,0.139,0.323,0.277,0.477,0.419c0.113,0.115,0.232,0.216,0.35,0.315c0.165,0.146,0.331,0.292,0.492,0.445
	c0.26,0.242,0.528,0.484,0.776,0.742c0.162,0.161,0.315,0.33,0.467,0.496c0.112,0.115,0.217,0.245,0.304,0.376
	c0.09,0.139,0.198,0.269,0.267,0.415c0.083,0.169,0.169,0.338,0.232,0.516c0.123,0.346,0.213,0.695,0.269,1.053
	c0.031,0.207,0.027,0.407,0.05,0.607c0.036,0.342,0.075,0.684,0.119,1.021c0.034,0.308,0.109,0.604,0.211,0.884
	c0.102,0.284,0.26,0.538,0.461,0.769c0.132,0.154,0.286,0.297,0.456,0.408c0.161,0.107,0.33,0.195,0.517,0.261
	c0.421,0.153,0.846,0.2,1.286,0.127c0.008-0.03,0.025-0.054,0.052-0.081c0.263-0.184,0.469-0.426,0.646-0.699
	c0.079-0.123,0.143-0.25,0.211-0.381c0.146-0.28,0.248-0.58,0.359-0.879c0.079-0.216,0.15-0.438,0.225-0.662
	c0.094-0.272,0.263-0.507,0.475-0.707c0.183-0.161,0.397-0.269,0.63-0.338c0.181-0.054,0.365-0.076,0.552-0.107
	c-0.012,0.023-0.029,0.042-0.008,0.062c0.065-0.038,0.086-0.115,0.14-0.165c0.173-0.15,0.352-0.3,0.556-0.404
	c0.267-0.138,0.54-0.227,0.841-0.199c0.127,0.016,0.162,0.062,0.123,0.185c-0.004,0.015-0.011,0.03-0.015,0.05
	c0.027,0.02,0.058,0.004,0.086-0.004c0.219-0.069,0.448-0.096,0.68-0.054c0.098,0.008,0.192,0.038,0.296,0.038
	c-0.075-0.016-0.094-0.054-0.044-0.119c0.031-0.042,0.06-0.088,0.075-0.143c0.075-0.23,0.142-0.453,0.213-0.684
	c0.011-0.046,0.027-0.084,0.035-0.135c0.023-0.138,0.04-0.272,0.071-0.411c0.052-0.249,0.098-0.499,0.129-0.749
	c0.033-0.258,0.067-0.519,0.071-0.78C182.837,217.203,182.878,216.888,182.874,216.565"/>
<path fill="#E9B78D" d="M177.098,224.8c-0.027-0.038-0.011-0.064,0.025-0.088c0.196-0.119,0.342-0.292,0.486-0.465
	c0.127-0.15,0.236-0.308,0.315-0.48c0.075-0.165,0.173-0.319,0.225-0.496c0.048-0.146,0.117-0.284,0.169-0.426
	c0.06-0.17,0.114-0.331,0.166-0.504c0.086-0.266,0.185-0.522,0.363-0.742c0.181-0.223,0.396-0.392,0.668-0.499
	c0.248-0.104,0.503-0.131,0.763-0.185c0,0.046-0.048,0.058-0.034,0.092c-0.116,0.178-0.233,0.346-0.344,0.531
	c-0.121,0.199-0.234,0.407-0.346,0.614c-0.086,0.157-0.192,0.308-0.256,0.477c-0.019,0.062-0.067,0.107-0.094,0.161
	c-0.123,0.238-0.236,0.48-0.361,0.723c-0.108,0.2-0.225,0.404-0.375,0.58c-0.177,0.204-0.382,0.373-0.63,0.496
	c-0.188,0.092-0.39,0.146-0.59,0.185c-0.038-0.008-0.079-0.004-0.113,0.02C177.127,224.804,177.109,224.804,177.098,224.8"/>
<path fill="#F7D1AC" d="M176.468,224.885c0.031-0.042,0.071-0.042,0.109-0.019L176.468,224.885z"/>
<path fill="#FBE1CF" d="M176.17,223.906c0.021,0.092-0.012,0.195-0.046,0.292c-0.033,0.073-0.086,0.146-0.181,0.185
	c-0.198,0.076-0.378,0.05-0.57-0.008c-0.1-0.031-0.202-0.062-0.289-0.119c-0.113-0.081-0.232-0.15-0.331-0.266
	c-0.086-0.1-0.177-0.195-0.263-0.3c-0.067-0.077-0.105-0.169-0.157-0.249c-0.106-0.178-0.202-0.365-0.267-0.565
	c-0.052-0.153-0.108-0.315-0.146-0.477c-0.015-0.069-0.027-0.139-0.03-0.2c-0.006-0.1-0.048-0.191-0.029-0.292l-0.003-0.022
	c-0.067-0.185-0.012-0.373,0.023-0.558c0.033-0.153,0.111-0.28,0.221-0.38c0.035-0.031,0.106-0.047,0.166-0.047
	c0.181-0.008,0.323,0.077,0.461,0.177c0.102,0.081,0.192,0.169,0.283,0.258c0.086,0.081,0.154,0.196,0.232,0.288
	c0.134,0.161,0.236,0.346,0.346,0.519c0.083,0.131,0.162,0.266,0.209,0.419c0.02,0.058,0.05,0.107,0.079,0.162
	c0.071,0.138,0.109,0.292,0.165,0.434c0.042,0.104,0.062,0.212,0.09,0.315C176.166,223.606,176.187,223.751,176.17,223.906"/>
<path fill="#FBE1CF" d="M173.22,208.064c0.2,0,0.396,0.016,0.59,0.077c0.054,0.023,0.117,0.008,0.117,0.008
	c0.232,0.012,0.394,0.065,0.556,0.107c0.213,0.062,0.413,0.146,0.621,0.2c0.088,0.026,0.175,0.068,0.257,0.115
	c0.121,0.054,0.248,0.104,0.361,0.177c0.117,0.073,0.251,0.111,0.365,0.2c0.119,0.088,0.24,0.168,0.367,0.242
	c0.131,0.072,0.225,0.184,0.331,0.28c0.142,0.13,0.292,0.269,0.398,0.445c0.06,0.089,0.157,0.153,0.184,0.269
	c0.008,0.023,0.016,0.055,0.016,0.077c0.012,0.123-0.031,0.154-0.154,0.139c-0.125-0.008-0.248-0.03-0.369-0.069
	c-0.094-0.023-0.177-0.076-0.267-0.107c-0.138-0.062-0.284-0.1-0.417-0.169c-0.119-0.058-0.237-0.123-0.363-0.153
	c-0.125-0.031-0.221-0.116-0.354-0.146c-0.115-0.023-0.233-0.081-0.338-0.146c-0.094-0.054-0.206-0.076-0.308-0.115
	c-0.048-0.02-0.094-0.046-0.142-0.068c-0.15-0.063-0.311-0.085-0.455-0.154c-0.221-0.096-0.45-0.161-0.675-0.242
	c-0.188-0.073-0.376-0.146-0.561-0.234c-0.19-0.088-0.382-0.161-0.563-0.28c-0.071-0.05-0.138-0.097-0.181-0.173
	c-0.033-0.062-0.029-0.123,0.035-0.158c0.071-0.042,0.15-0.088,0.24-0.08c0.071,0.016,0.132-0.008,0.2-0.023
	C172.88,208.038,173.049,208.06,173.22,208.064"/>
<path fill="#F7D1AC" d="M177.753,212.822c0.071,0.027,0.139,0.051,0.209,0.073c0.042,0,0.083,0.004,0.11,0.042
	c-0.071,0.016-0.139,0.023-0.208-0.022c-0.092-0.058-0.187-0.027-0.281,0.08c-0.012,0.016-0.019,0.031-0.031,0.05
	c0.117,0.023,0.211,0.093,0.312,0.158c0.09,0.058,0.177,0.111,0.259,0.177c0.067,0.058,0.105,0.134,0.181,0.181
	c0.039,0.03,0.019,0.054-0.02,0.076c0.071,0.02,0.137-0.007,0.192,0.035c0.019,0.016,0.035-0.004,0.052-0.016
	c0.058-0.034,0.102-0.08,0.144-0.139c0.014-0.015,0.029-0.03,0.048-0.019c0.023,0.015,0.004,0.034,0,0.05
	c-0.044,0.073-0.09,0.15-0.185,0.169c0,0-0.041,0.012-0.052,0.034c-0.054,0.085-0.139,0.146-0.2,0.216
	c-0.134,0.161-0.292,0.284-0.438,0.431c-0.042,0.038-0.094,0.084-0.161,0.1c0,0-0.054,0.008-0.073-0.012
	c-0.013-0.012-0.021-0.026-0.021-0.034l0.015-0.016c0.158-0.022,0.24-0.081,0.236-0.215c-0.003-0.154,0.079-0.246,0.183-0.331
	c0.016-0.02,0.039-0.03,0.046-0.058c-0.15-0.011-0.294,0.035-0.448,0.004c-0.09-0.019-0.202,0.004-0.3,0
	c-0.052-0.004-0.109,0.027-0.15-0.038c-0.012-0.016-0.019,0.016-0.031,0.026c-0.029,0.031-0.06,0.097-0.079-0.003
	c-0.008-0.031-0.037-0.031-0.037-0.031c-0.148,0.008-0.275-0.016-0.396-0.069c-0.06-0.022-0.142,0.008-0.202-0.019
	c-0.158-0.066-0.334-0.089-0.484-0.178c-0.067-0.038-0.142-0.08-0.185-0.142c-0.071-0.093-0.031-0.204,0.071-0.276
	c0.094-0.073,0.2-0.139,0.308-0.17c0.14-0.05,0.282-0.107,0.44-0.104c0.221,0.004,0.432,0.023,0.638,0.096
	c0.075,0.023,0.166,0.008,0.219,0.081c0.021,0.026,0.037,0.004,0.052-0.012c0.056-0.046,0.11-0.1,0.169-0.142
	C177.686,212.833,177.719,212.822,177.753,212.822"/>
<path fill="#EAB684" d="M177.792,217.403c-0.011,0.262-0.052,0.522-0.146,0.765c-0.09,0.234-0.296,0.312-0.555,0.227
	c-0.248-0.084-0.429-0.261-0.602-0.445c-0.012-0.058,0.035-0.058,0.035-0.058c0.225-0.042,0.409-0.104,0.582-0.2
	c0.15-0.08,0.304-0.149,0.435-0.265c0.05-0.046,0.109-0.077,0.153-0.131c0.023-0.023,0.046-0.038,0.046-0.038
	C177.795,217.303,177.759,217.357,177.792,217.403"/>
<path fill="#F7D1AC" d="M171.889,207.111h0.015c0.083-0.022,0.166,0.008,0.244,0.023l0.079,0.031
	c0.067,0.115,0.102,0.223,0.046,0.354c-0.083,0.18-0.331,0.211-0.456,0.1C171.683,207.496,171.652,207.253,171.889,207.111"/>
<path fill="#F7D1AC" d="M172.148,207.134c-0.083,0.016-0.161-0.042-0.244-0.027C171.987,207.088,172.069,207.077,172.148,207.134"/>
<path fill="#E9B78D" d="M172.882,211.98c-0.063-0.034-0.134-0.034-0.2-0.038c-0.19-0.008-0.382-0.019-0.575-0.012
	c-0.171,0.004-0.34,0.016-0.505,0.054c-0.238,0.062-0.484,0.101-0.711,0.208c-0.107,0.054-0.221,0.085-0.327,0.138
	c-0.359,0.178-0.686,0.408-0.987,0.662c-0.008,0.007-0.016,0.015-0.016,0.015c-0.033,0.023-0.056,0.062-0.079,0.046
	c-0.029-0.022,0.015-0.046,0.019-0.072c0.008-0.027,0.02-0.063-0.008-0.089c0.087-0.23,0.185-0.461,0.327-0.669
	c0.075-0.111,0.158-0.207,0.248-0.307c0.083-0.089,0.166-0.186,0.267-0.258c0.094-0.065,0.177-0.15,0.271-0.215
	c0.165-0.123,0.334-0.234,0.507-0.343c0.187-0.115,0.382-0.215,0.584-0.3c0.267-0.107,0.542-0.199,0.834-0.254
	c0.515-0.107,1.026-0.115,1.537,0.008c0.194,0.047,0.386,0.101,0.567,0.185c0.033,0.008,0.067,0.016,0.083,0.058
	C173.877,210.839,173.276,211.247,172.882,211.98"/>
<path fill="#E9B78D" d="M174.25,212.399c-0.134-0.007-0.248-0.076-0.365-0.13c-0.083-0.039-0.169-0.073-0.252-0.101
	c-0.044-0.015-0.063-0.03-0.075-0.069c0.109-0.161,0.248-0.284,0.409-0.38c0.484-0.296,0.991-0.3,1.51-0.097h0.008
	c-0.294,0.093-0.575,0.224-0.834,0.396c-0.121,0.08-0.232,0.181-0.323,0.296C174.306,212.349,174.281,212.38,174.25,212.399"/>
<path fill="#E9B78D" d="M177.894,215.828c-0.406-0.101-0.811-0.208-1.205-0.346c-0.24-0.085-0.477-0.178-0.705-0.285
	c-0.255-0.123-0.515-0.246-0.751-0.407c-0.102-0.069-0.215-0.131-0.309-0.215c-0.1-0.093-0.206-0.173-0.3-0.27
	c-0.086-0.092-0.173-0.185-0.24-0.292c-0.106-0.153-0.196-0.322-0.244-0.507c-0.056-0.208-0.094-0.423-0.06-0.646
	c0.029-0.17,0.115-0.308,0.169-0.462c-0.019-0.054-0.071-0.03-0.105-0.038c-0.146-0.054-0.279-0.139-0.429-0.185
	c-0.056-0.016-0.111-0.038-0.153-0.081c-0.063,0.051-0.087,0.119-0.131,0.185c-0.15,0.212-0.232,0.45-0.306,0.696
	c-0.104,0.322-0.134,0.668-0.165,1.007c0,0.03,0.011,0.069,0.011,0.069c-0.075,0.015-0.1-0.016-0.111-0.047
	c-0.027-0.054-0.042-0.107-0.065-0.161c-0.067-0.161-0.111-0.323-0.123-0.492c-0.008-0.126-0.023-0.249-0.035-0.368
	c0.011-0.031,0.007-0.063,0.007-0.093c0.004-0.127,0.012-0.254,0.042-0.376c0.029-0.077,0.029-0.162,0.06-0.235
	c0.039-0.104,0.098-0.195,0.138-0.296c0.004-0.038-0.025-0.038-0.044-0.038c-0.079-0.008-0.158-0.03-0.24-0.03
	c-0.185-0.004-0.365-0.012-0.551-0.008c-0.173,0.004-0.342,0.03-0.507,0.068c-0.248,0.063-0.492,0.127-0.729,0.224
	c-0.279,0.115-0.538,0.253-0.786,0.419c-0.177,0.119-0.342,0.257-0.507,0.396c0-0.046,0.034-0.097-0.025-0.123
	c-0.03,0.046-0.034,0.101-0.046,0.157c-0.044,0.2-0.098,0.404-0.098,0.611c0,0.085,0.027,0.162,0.023,0.246
	c0.042,0.02,0.063,0.069,0.094,0.1c0.209,0.192,0.437,0.361,0.669,0.523c0.275,0.191,0.559,0.376,0.851,0.541
	c0.279,0.158,0.55,0.323,0.846,0.454c0.188,0.088,0.369,0.185,0.559,0.265c0.161,0.077,0.323,0.139,0.488,0.192
	c0.121,0.042,0.24,0.093,0.365,0.131c0.304,0.077,0.609,0.146,0.92,0.192c0.169,0.03,0.334,0.05,0.503,0.064
	c0.169,0.012,0.334,0.035,0.505,0.035c0.565,0.008,1.124,0.054,1.691,0.038c0.127,0,0.244-0.03,0.367-0.054
	c0.125-0.026,0.248-0.058,0.373-0.092c0.112-0.031,0.217-0.069,0.323-0.104c0.063-0.02,0.115-0.073,0.184-0.066
	c0.067-0.053,0.1-0.138,0.166-0.207C178.145,215.888,178.018,215.858,177.894,215.828"/>
<path fill="#E9B78D" d="M176.487,217.949c0,0,1.239-0.062,1.464-1.43c0.225-1.36,0.346-0.715,0.413-0.492
	c0.071,0.219-0.075,2.198-0.965,2.371"/>
<path fill="#E9B78D" d="M205.461,238.283c0.598,0.173,1.201,0.342,1.799,0.519c0.311,0.089,0.615,0.192,0.924,0.223
	c-2.187-0.596-6.862-2.021-18.168-5.78c-14.002-4.653-14.521-9.177-15.34-8.289c-0.709,0.765,4.904,9.673,6.631,12.997
	c0.083-0.134,0.155-0.28,0.24-0.411c1.191-1.845,2.675-2.56,4.669-2.645c4.846-0.215,9.752,0.869,14.437,2.019
	C201.861,237.21,204.263,237.94,205.461,238.283"/>
<polygon fill="#625E5C" points="184.611,216.785 188.666,216.204 188.76,216.849 184.784,217.318 "/>
<polygon fill="#625E5C" points="184.861,217.58 188.764,217.111 188.771,217.326 184.844,217.818 "/>
<polygon fill="#625E5C" points="184.922,218.01 188.812,217.749 188.823,217.903 184.911,218.179 "/>
<path fill="#625E5C" d="M206.449,205.508c-2.125-1.349-6.835-1.268-9.708-0.703c0,0,9.054,0.212,10.267,4.55
	c0.357-0.584,0.202-1.798,0.54-2.413C207.429,206.346,207.252,206.016,206.449,205.508"/>
<polygon fill="#625E5C" points="165.025,230.938 167.98,229.063 168.217,229.754 165.321,231.638 "/>
<polygon fill="#625E5C" points="165.319,232.022 168.335,230.4 168.501,230.785 165.425,232.487 "/>
<polygon fill="#625E5C" points="165.425,232.66 168.491,231.384 168.549,231.661 165.511,232.987 "/>
<polygon fill="#625E5C" points="165.526,233.236 168.53,232.014 168.589,232.161 165.613,233.406 "/>
<path fill="#4DA1D7" d="M190.022,249.958l1.257,0.212c0,0,9.575,12.878,10.728,14.526c1.153,1.652,3.001,46.743,3.042,47.615
	c0.039,0.876,12.117,54.642,12.742,56.009c0.626,1.361-0.522,3.059-0.522,3.059c-29.646,38.734-34.521,13.467-39.401,15.195
	c-4.879,1.723-24.634-26.455-26.469-37.861c-1.833-11.41-2.656-67.331,3.067-77.883c5.726-10.554,5.854-10.484,5.854-10.484
	s7.911-6.549,8.359-6.902c0,0,1.674,8.9-1.779-5.35"/>
<path fill="#4DA1D7" d="M162.27,322.523c0,0-12.34,28.672-13.207,29.483c-0.864,0.813-0.052,5.822-0.071,8.375
	c-0.02,2.551,0.784,9.123,0.784,9.123l-1.472,7.025c0,0-1.724,24.857-3.228,31.936c-0.425,2.006,9.69-3.443,10.634-3.611
	c0.949-0.17,13.353-10.012,15.898-10.77c2.542-0.75,17.653-2.459,17.897-2.756c0.244-0.291,2.173-0.625,2.444-0.818
	c0.277-0.191,4.464-10.434,6.601-11.068c2.137-0.629,6.233-7.709,6.233-7.709"/>
<polygon fill="#5EB1E1" points="167.8,320.919 151.225,347.592 150.41,336.783 "/>
<polygon fill="#3F95C5" points="184.073,298.519 169.047,280.264 176.391,300.221 182.215,303.657 179.815,308.214 185.718,309.914 
	208.884,322.922 204.674,303.15 204.553,298.039 193.206,299.648 "/>
<path fill="#4DA1D7" d="M154.597,270.591c0,0-3.286,7.789-5.096,14.934s-0.706,11.614-1.036,14.677
	c-0.327,3.063,3.045,9.42,3.399,9.962"/>
<path fill="#4DA1D7" d="M190.94,256.787l12.767-1.203c0,0,12.246-0.346,14.1-0.411c1.85-0.062,19.369-0.722,19.369-0.722
	s4.133,24.811,0.83,33.181c0,0-33.26,10.591-33.627,10.434c-0.365-0.157-12.148,0.784-12.396,0.757
	c-0.251-0.015-5.111-13.766-5.111-13.766"/>
<path fill="#F4F4F4" d="M229.671,254.689l7.679-0.727l2.655,10.771c0,0,0.882,8.559,0.74,8.978
	c-0.138,0.415-0.862,7.448-0.913,7.556c-0.048,0.107-1.983,9.301-1.983,9.301l-8.313-0.178c0,0,3.57-15.106,3.432-20.375
	C232.834,264.75,229.671,254.689,229.671,254.689"/>
<path fill="#F4F4F4" d="M164.273,248.974l-1.032,8.988c0,0,12.015-6.218,18.846-5.026c5.761,1.003,9.639,1.672,10.011,1.948
	c0.375,0.273,3.59,0.965,3.59,0.965s-3.958-6.449-2.846-6.533c1.115-0.077-12.801-5.373-16.3-4.381
	C173.045,245.926,164.273,248.974,164.273,248.974"/>
<path fill="#F6D1AF" d="M324.257,236.788c0,0,3.019-2.506,3.801-3.229c0.788-0.715,2.546-2.226,4.502-3.09
	c1.96-0.86,6.285-3.974,8.028-4.504c1.747-0.534,3.71-0.596,2.681,1.61c-1.028,2.21-2.937,3.432-4.31,3.824
	c-1.378,0.392-1.9,2.028-3.286,2.505"/>
<path fill="#4DA1D7" d="M208.884,322.922c0,0,4.231,10.396,4.37,11.365c0.137,0.959-2.394,9.354-3.13,10.705
	c-0.73,1.346-1.462,2.691-4.666,2.715c-3.209,0.021-9.226-1.43-9.304-1.791c-0.083-0.365-0.48-13.689-0.713-14.904
	c-0.227-1.207-1.939-5.299-2.089-6.141c-0.15-0.846-0.623-3.151-0.623-3.151l0.934-2.16l0.132-1.287l2.058-2.663"/>
<path fill="#1C293E" d="M139.678,477.441c0,0-0.327,2.643-0.892,3.443c-0.566,0.799-0.882,1.789-0.63,2.459
	c0.251,0.668,0.473,1.121-0.209,2.014c-0.684,0.898-1.243,1.637-1.255,2.283c-0.016,0.645,0.623,2.268,0.35,2.828
	c-0.271,0.561-1.184,1.498-1.085,2.189c0.188,1.293-0.162,1.277,0.271,1c0.807-0.531,0.814,1.477,1.543,0.639
	c0.732-0.838,3.293-4.328,4.029-7.311c0.74-2.975,1.701-4.488,1.397-6.232c-0.302-1.754-0.538-3.061-0.538-3.061"/>
<path fill="#F6D1AF" d="M315.694,246.457c0,0,5.092-0.631,5.716-2.836c0.63-2.206,5.534,0.261,5.49,0.707
	c-0.046,0.434,0.142,2.901-0.357,3.428c-0.5,0.53-0.69,2.375-2.952,2.321c-2.264-0.058-4.216,1.161-5.227,1.499
	c-1.015,0.346-3.797,1.879-4.168,2.018"/>
<path fill="#E9B78D" d="M210.704,225.873c0,0-5.081,0.961-11.889-1.168c0,0,3.966,1.215,12.396,0.331L210.704,225.873z"/>
<path fill="#E9B78D" d="M210.938,228.686c0,0-3.418-0.107-4.919-0.646c-1.495-0.546,1.186,1.346,3.314,2.768
	c0,0,0.732,0.638,0.822-0.123C210.243,229.923,210.667,229.113,210.938,228.686"/>
<path fill="#888888" d="M297.665,542.135c0,0,0.465,2.391-2.742,2.998c-3.209,0.607-17.73-0.324-39.424-7.102
	c-21.7-6.771-19.95-9.439-20.165-10.193c-0.213-0.744,0.488-2.975,1.326-3.336"/>
<path fill="#616161" d="M262.307,520.213c0,0,37.817,18.594,35.204,22.375s-55.473-8.869-61.272-16.248
	c0,0-2.373-1.553,7.894-12.105c0,0,3.443-3.467,4.533-0.555C249.761,516.602,247.288,521.781,262.307,520.213"/>
<path fill="#FFFFFF" d="M284.414,531.26c-3.147-1-6.989-1.023-9.602,1.213c-0.48,0.408,0.217,1.092,0.694,0.691
	c2.329-1.99,5.87-1.844,8.649-0.959C284.756,532.396,285.011,531.451,284.414,531.26"/>
<path fill="#FFFFFF" d="M279.191,527.977c-2.475-0.768-5.888-1.236-7.93,0.707c-0.456,0.432,0.236,1.131,0.694,0.691
	c1.754-1.676,4.867-1.105,6.977-0.453C279.533,529.115,279.792,528.17,279.191,527.977"/>
<path fill="#FFFFFF" d="M273.79,525.164c-2.471-0.746-5.43-0.793-7.592,0.76c-0.507,0.361-0.02,1.215,0.492,0.846
	c1.96-1.406,4.606-1.336,6.841-0.66C274.135,526.285,274.391,525.34,273.79,525.164"/>
<path fill="#FFFFFF" d="M268.922,522.896c-1.889-1.369-4.625-0.301-6.399,0.668c-0.555,0.309-0.06,1.146,0.492,0.846
	c1.464-0.799,3.82-1.822,5.411-0.668C268.941,524.111,269.43,523.258,268.922,522.896"/>
<path fill="#FFFFFF" d="M264.391,521.744c0.846,0.975,1.472,2.145,1.885,3.357c0.39,1.139,0.263,2.26-0.094,3.367
	c-0.263,0.814-1.499,3.266-2.763,2.213c-2.502-2.09,0.275-7.117,1.739-9.039c0.382-0.498-0.467-0.99-0.842-0.49
	c-1.224,1.605-2.129,3.504-2.562,5.473c-0.311,1.398-0.102,5.518,2.192,5.326c2.112-0.186,3.509-2.982,3.549-4.881
	c0.05-2.229-0.969-4.359-2.414-6.02C264.666,520.574,263.978,521.268,264.391,521.744"/>
<path fill="#FFFFFF" d="M264.132,521.613c0.344,1.322,0.528,2.904-0.058,4.182c-0.792,1.713-3.731,1.451-4.621,3.234
	c-0.279,0.563,0.563,1.053,0.847,0.492c0.567-1.137,2.625-1.691,3.684-2.268c0.688-0.377,1.03-1.084,1.259-1.799
	c0.401-1.268,0.161-2.844-0.166-4.104C264.92,520.744,263.974,521.006,264.132,521.613"/>
<path fill="#1C293E" d="M187.14,407.889c0,0,2.229-8.07,4.104-8.27c1.877-0.201,7.505-0.801,7.505-0.801s0.02-4.273-3.447-3.428
	c-3.471,0.846-5.482,2.006-6.891,2.16c-1.405,0.146-6.124,0.412-6.887,2.152c-0.763,1.744-2.605,11.191-2.605,11.191"/>
<path fill="#1C293E" d="M129.204,563.541c0,0-0.632,1.844-0.236,3.352c0.398,1.498,0.665,2.889-1.533,4.549
	c-2.196,1.66-3.676,1.107-4.408,4.266c-0.732,3.16-1.641,5.75-1.66,6.703c-0.017,0.953,0.567,1.959,0.065,2.836
	c-0.5,0.885-1.443,2.061-2.683,2.66c-1.239,0.607-3.795,3.373-4.133,3.527c-0.342,0.154-2.31,0.6-2.31,0.6
	s-10.951-3.697-11.341-4.012c-0.39-0.316-2.456-1.877-1.393-3.061c1.059-1.176,1.529-1.221,2.361-3.449
	c0.83-2.223,0.846-5.428,2.64-7.518c1.795-2.092,0.625-3.037,1.758-5.766s-0.323-0.799,1.768-2.32
	c2.092-1.529,4.214-7.209,5.528-9.369c1.314-2.152,3.735-5.027,4.652-5.357"/>
<path fill="#1C293E" d="M261.105,476.357c0,0-5.607,4.158-5.13,6.955c0.475,2.799-1.606,4.973-2.613,7.217s-2.896,4.582-3.057,6.373
	c-0.166,1.799-0.044,4.635,0.09,5.863c0.128,1.23,9.831,3.76,10.24,4.252c0.403,0.49,8.503,3.012,9.298,0.43
	c0.795-2.566-1.093-0.238,1.72-3.92c2.809-3.674,2.357-5.135,1.61-8.824c-0.75-3.697,0.062-2.205,0.661-4.934
	c0.598-2.736,0.031-3.037,0.88-5.08c0.851-2.053,1.648-4.566,0.799-7.557"/>
<path fill-rule="evenodd" clip-rule="evenodd" fill="#5B6C8E" d="M123.556,579.035c0,0-2.104,9.463-3.67,11.184
	c-1.572,1.723-7.408,6.764-17.644-0.961c-7.477-5.641-6.072-6.463-4.506-9.668c1.568-3.197,7.198-9.908,7.959-8.979
	c0.759,0.93,0.424,6.057,7.515,8.34C120.299,581.234,123.42,575.961,123.556,579.035"/>
<path fill="none" stroke="#A8BDDA" stroke-width="0.158" stroke-linecap="round" stroke-miterlimit="10" stroke-dasharray="0.264,0.264,0.264,0.264,0.264,0.264" d="
	M106.208,573.764c0,0-5.338,5.656-7.727,11.551"/>
<path fill-rule="evenodd" clip-rule="evenodd" fill="#5B6C8E" d="M273.553,496.18c0,0,1.574,0.5,0.634,2.412
	c-0.945,1.898-3.83,11.246-5.434,12.092c-1.606,0.854-6.942,0.398-12.763-1.623c-5.107-1.775-9.713-9.238-9.523-10.359
	c0.323-1.893,6.692-13.352,8.491-12.668c1.268,0.484,0.405,0.055,2.137,2.459c1.728,2.406,1.122,5.85,7.604,7.141
	C271.18,496.918,272.16,495.672,273.553,496.18"/>
<path fill="none" stroke="#798EB1" stroke-width="0.15" stroke-linecap="round" stroke-miterlimit="10" stroke-dasharray="0.249,0.249,0.249,0.249,0.249,0.249" d="
	M271.505,496.172c0,0-1.708,7.74-6.03,14.58"/>
<circle fill="#FFFFFF" cx="156.059" cy="102.188" r="48.308"/>
<polyline fill="#D2A887" points="111.153,590.191 103.042,608.832 92.919,608.701 103.486,587.625 "/>
<polyline fill="#E1BA99" points="115.589,589.611 107.479,608.25 97.356,608.121 107.923,587.045 "/>
<path fill="#888888" d="M146.989,621.271c0,0,1.707,5.195-6.683,6.195c-8.393,1.002-20.424,1.832-23.548,1.609
	c-3.128-0.219-19.24-8.631-22.176-10.111c-2.934-1.482-7.217-4.08-7.492-4.777c-0.271-0.699,1.37-3.023,2.907-3.17
	c1.539-0.146,3.928-0.061,3.928-0.061"/>
<path fill="#616161" d="M111.036,603.098c0,0,7.037,7.375,14.565,9.516c10.102,2.875,22.111,6.563,21.483,8.877
	c-0.746,2.713-10.096,4.6-27.445,5.242c-8.036,0.299-29.507-12.725-31.861-14.1c0,0,0.056,0.129,2.354-4.582
	c0.709-1.445,3.172-4.326,4.498-7.152c0,0,1.66-1.709,3.549,0.377C100.067,603.367,98.367,609.084,111.036,603.098"/>
<path fill="#FFFFFF" d="M126.012,612.137c-2.798-0.004-6.255,0.541-8.17,2.766c-0.331,0.385,0.229,0.949,0.563,0.559
	c1.771-2.057,5.013-2.537,7.607-2.533C126.523,612.932,126.523,612.137,126.012,612.137"/>
<path fill="#FFFFFF" d="M120.157,609.846c-2.252,0.115-5.38,0.465-6.766,2.471c-0.29,0.42,0.398,0.811,0.686,0.396
	c1.176-1.695,4.174-1.977,6.08-2.076C120.665,610.615,120.668,609.818,120.157,609.846"/>
<path fill="#FFFFFF" d="M116.754,607.859c-2.279-0.023-4.878,0.387-6.591,1.99c-0.378,0.35,0.185,0.91,0.559,0.561
	c1.551-1.445,3.981-1.779,6.032-1.76C117.265,608.658,117.265,607.863,116.754,607.859"/>
<path fill="#FFFFFF" d="M114.631,605.768c-1.67-1.072-3.947-0.668-5.692-0.084c-0.484,0.162-0.274,0.926,0.209,0.762
	c1.547-0.516,3.593-0.953,5.081,0.008C114.662,606.729,115.059,606.045,114.631,605.768"/>
<path fill="#FFFFFF" d="M112.721,605.91c0.323,0.619,0.544,1.271,0.736,1.941c0.232,0.811,0.267,1.637,0.142,2.467
	c-0.079,0.535-0.74,3.051-1.806,1.553c-1.381-1.941,0.11-4.455,1.551-5.881c0.365-0.357-0.198-0.918-0.559-0.557
	c-0.999,0.988-1.747,2.203-2.173,3.539c-0.417,1.326,0.037,3.871,1.61,4.297c1.358,0.377,1.929-1.891,2.141-2.736
	c0.417-1.645-0.196-3.563-0.955-5.023C113.17,605.057,112.484,605.461,112.721,605.91"/>
<path fill="#FFFFFF" d="M113.747,606.568c0.381,0.268,0.711,0.588,1.03,0.926c0.92,0.957,0.357,1.918,0.102,2.955
	c-0.323,1.291,0.736,2.455,1.157,3.566c0.183,0.473,0.949,0.266,0.765-0.207c-0.263-0.699-0.686-1.318-0.965-2.006
	c-0.465-1.135,0.488-2.123,0.394-3.236c-0.094-1.107-1.243-2.092-2.083-2.684C113.726,605.588,113.332,606.279,113.747,606.568"/>
<path fill="#625E5C" d="M196.142,198.895c0,0,9.216-0.723,9.031-6.106c-0.181-5.385-7.344-7.029-10.987-4.958
	c-3.641,2.071-4.873,3.981-4.927,4.312c-0.052,0.331-0.138,1.477-0.138,1.477"/>
<path fill="#625E5C" d="M202.005,194.199c0.217-0.054,0.536,0.02,0.761,0.02c0.625-0.004,1.247-0.051,1.864-0.139
	c1.843-0.258,3.653-0.896,5.156-2.01c2.016-1.484,3.641-4.009,3.803-6.541c0.05-0.869,0.09-2.053-0.304-2.852
	c0,0-2.944,8.136-10.607,1.875"/>
<path fill="#625E5C" d="M197.074,198.864c0,0,6.333-0.938,12.129-3.851c0,0-2.197,0.161-4.195-1.106"/>
<g>
	<path fill="#D62929" d="M153.105,46.047c-30.956,0-56.141,25.183-56.141,56.141s25.184,56.141,56.141,56.141
		s56.141-25.183,56.141-56.141S184.061,46.047,153.105,46.047z M107.247,102.188c0-25.287,20.572-45.858,45.858-45.858
		c11.393,0,21.823,4.187,29.852,11.091l-64.619,64.619C111.434,124.011,107.247,113.581,107.247,102.188z M153.105,148.046
		c-10.194,0-19.618-3.348-27.24-8.994l64.103-64.103c5.646,7.623,8.994,17.047,8.994,27.24
		C198.963,127.475,178.392,148.046,153.105,148.046z"/>
</g>
</svg>
