<svg width="1120" height="274" viewBox="0 0 1120 274" fill="none" xmlns="http://www.w3.org/2000/svg">
<g clip-path="url(#clip0)">
<rect width="1120" height="274" fill="#182537"/>
<mask id="path-1-inside-1" fill="white">
<path fill-rule="evenodd" clip-rule="evenodd" d="M166.717 236.466C189.067 236.466 207.793 217.699 207.793 193.927V42.5388C207.793 19.3927 189.671 0 166.717 0L41.0753 21.2694C18.7255 21.2694 0 40.0365 0 63.8082V193.927C0 217.073 18.7255 236.466 41.0753 236.466H166.717ZM96.0505 103.219L135.314 110.725C167.932 116.356 183.637 133.246 183.637 162.022C183.637 182.04 175.785 197.68 159.476 209.566C144.978 220.2 127.461 225.205 106.923 225.205C77.3251 225.205 49.5388 213.945 24.7729 192.05L51.351 163.899C68.2643 182.04 86.9898 191.424 108.736 191.424C117.192 191.424 124.441 189.547 131.689 185.794C140.75 181.415 144.978 175.159 144.978 167.652C144.978 156.392 137.126 148.885 120.816 145.757L98.4667 141.378C78.5331 136.999 64.036 132.62 54.3712 126.365C40.4781 117.607 33.2296 104.47 33.2296 87.5793C33.2296 68.8121 40.4781 53.1729 55.5793 41.9126C68.8684 31.2779 85.1777 26.2733 104.507 26.2733C128.669 26.2733 152.831 35.0313 176.389 52.5473L154.039 80.698C138.334 66.3099 121.421 59.4286 105.111 59.4286C97.2586 59.4286 90.0101 61.3053 83.3655 65.0587C75.5129 69.4377 71.8886 75.6934 71.8886 83.2003C71.8886 93.2094 79.7412 100.091 96.0505 103.219Z"/>
</mask>
<path fill-rule="evenodd" clip-rule="evenodd" d="M166.717 236.466C189.067 236.466 207.793 217.699 207.793 193.927V42.5388C207.793 19.3927 189.671 0 166.717 0L41.0753 21.2694C18.7255 21.2694 0 40.0365 0 63.8082V193.927C0 217.073 18.7255 236.466 41.0753 236.466H166.717ZM96.0505 103.219L135.314 110.725C167.932 116.356 183.637 133.246 183.637 162.022C183.637 182.04 175.785 197.68 159.476 209.566C144.978 220.2 127.461 225.205 106.923 225.205C77.3251 225.205 49.5388 213.945 24.7729 192.05L51.351 163.899C68.2643 182.04 86.9898 191.424 108.736 191.424C117.192 191.424 124.441 189.547 131.689 185.794C140.75 181.415 144.978 175.159 144.978 167.652C144.978 156.392 137.126 148.885 120.816 145.757L98.4667 141.378C78.5331 136.999 64.036 132.62 54.3712 126.365C40.4781 117.607 33.2296 104.47 33.2296 87.5793C33.2296 68.8121 40.4781 53.1729 55.5793 41.9126C68.8684 31.2779 85.1777 26.2733 104.507 26.2733C128.669 26.2733 152.831 35.0313 176.389 52.5473L154.039 80.698C138.334 66.3099 121.421 59.4286 105.111 59.4286C97.2586 59.4286 90.0101 61.3053 83.3655 65.0587C75.5129 69.4377 71.8886 75.6934 71.8886 83.2003C71.8886 93.2094 79.7412 100.091 96.0505 103.219Z" fill="white"/>
<path d="M166.717 0V-1.5H166.591L166.467 -1.47896L166.717 0ZM41.0753 21.2694V22.7694H41.2013L41.3256 22.7484L41.0753 21.2694ZM135.314 110.725L135.032 112.199L135.045 112.201L135.059 112.204L135.314 110.725ZM96.0505 103.219L95.768 104.692L95.7688 104.692L96.0505 103.219ZM159.476 209.566L158.592 208.353L158.588 208.356L159.476 209.566ZM24.7729 192.05L23.6822 191.02L22.6182 192.147L23.7794 193.173L24.7729 192.05ZM51.351 163.899L52.4481 162.876L51.3579 161.707L50.2603 162.869L51.351 163.899ZM131.689 185.794L131.037 184.443L131.018 184.452L131 184.462L131.689 185.794ZM120.816 145.757L120.528 147.229L120.534 147.23L120.816 145.757ZM98.4667 141.378L98.1449 142.843L98.1616 142.847L98.1783 142.85L98.4667 141.378ZM54.3712 126.365L55.1863 125.105L55.1787 125.101L55.1711 125.096L54.3712 126.365ZM55.5793 41.9126L56.476 43.1151L56.4965 43.0998L56.5166 43.0838L55.5793 41.9126ZM176.389 52.5473L177.564 53.48L178.526 52.2674L177.284 51.3436L176.389 52.5473ZM154.039 80.698L153.026 81.804L154.213 82.8915L155.214 81.6307L154.039 80.698ZM83.3655 65.0587L84.0961 66.3688L84.1033 66.3647L83.3655 65.0587ZM206.293 193.927C206.293 216.906 188.204 234.966 166.717 234.966V237.966C189.93 237.966 209.293 218.492 209.293 193.927H206.293ZM206.293 42.5388V193.927H209.293V42.5388H206.293ZM166.717 1.5C188.78 1.5 206.293 20.1566 206.293 42.5388H209.293C209.293 18.6288 190.563 -1.5 166.717 -1.5V1.5ZM41.3256 22.7484L166.968 1.47896L166.467 -1.47896L40.8249 19.7905L41.3256 22.7484ZM1.5 63.8082C1.5 40.8296 19.5888 22.7694 41.0753 22.7694V19.7694C17.8621 19.7694 -1.5 39.2435 -1.5 63.8082H1.5ZM1.5 193.927V63.8082H-1.5V193.927H1.5ZM41.0753 234.966C19.603 234.966 1.5 216.295 1.5 193.927H-1.5C-1.5 217.852 17.848 237.966 41.0753 237.966V234.966ZM166.717 234.966H41.0753V237.966H166.717V234.966ZM135.595 109.252L96.3322 101.745L95.7688 104.692L135.032 112.199L135.595 109.252ZM185.137 162.022C185.137 147.351 181.126 135.533 172.801 126.667C164.498 117.825 152.069 112.095 135.569 109.247L135.059 112.204C151.177 114.986 162.909 120.516 170.614 128.721C178.296 136.902 182.137 147.917 182.137 162.022H185.137ZM160.359 210.778C177.058 198.608 185.137 182.516 185.137 162.022H182.137C182.137 181.564 174.511 196.752 158.592 208.353L160.359 210.778ZM106.923 226.705C127.714 226.705 145.56 221.634 160.363 210.775L158.588 208.356C144.397 218.766 127.208 223.705 106.923 223.705V226.705ZM23.7794 193.173C48.7833 215.279 76.9134 226.705 106.923 226.705V223.705C77.7367 223.705 50.2944 212.61 25.7664 190.926L23.7794 193.173ZM50.2603 162.869L23.6822 191.02L25.8636 193.079L52.4417 164.929L50.2603 162.869ZM108.736 189.924C87.4917 189.924 69.1421 180.782 52.4481 162.876L50.2538 164.922C67.3866 183.299 86.488 192.924 108.736 192.924V189.924ZM131 184.462C123.955 188.109 116.943 189.924 108.736 189.924V192.924C117.442 192.924 124.926 190.985 132.379 187.126L131 184.462ZM143.478 167.652C143.478 174.444 139.718 180.247 131.037 184.443L132.342 187.144C141.782 182.582 146.478 175.875 146.478 167.652H143.478ZM120.534 147.23C128.539 148.766 134.279 151.343 137.999 154.76C141.671 158.133 143.478 162.414 143.478 167.652H146.478C146.478 161.63 144.359 156.528 140.028 152.55C135.745 148.616 129.403 145.877 121.099 144.284L120.534 147.23ZM98.1783 142.85L120.528 147.229L121.105 144.285L98.7551 139.906L98.1783 142.85ZM53.5562 127.624C63.4738 134.043 78.2175 138.466 98.1449 142.843L98.7886 139.913C78.8488 135.533 64.5982 131.197 55.1863 125.105L53.5562 127.624ZM31.7296 87.5793C31.7296 104.976 39.2351 118.596 53.5713 127.634L55.1711 125.096C41.7211 116.617 34.7296 103.963 34.7296 87.5793H31.7296ZM54.6827 40.7101C39.1749 52.2736 31.7296 68.3732 31.7296 87.5793H34.7296C34.7296 69.2511 41.7814 54.0722 56.476 43.1151L54.6827 40.7101ZM104.507 24.7733C84.9055 24.7733 68.2461 29.8547 54.6421 40.7414L56.5166 43.0838C69.4906 32.7011 85.4498 27.7733 104.507 27.7733V24.7733ZM177.284 51.3436C153.52 33.6747 129.052 24.7733 104.507 24.7733V27.7733C128.286 27.7733 152.142 36.3879 175.494 53.751L177.284 51.3436ZM155.214 81.6307L177.564 53.48L175.214 51.6146L152.864 79.7653L155.214 81.6307ZM105.111 60.9286C120.977 60.9286 137.542 67.6191 153.026 81.804L155.052 79.592C139.125 65.0006 121.864 57.9286 105.111 57.9286V60.9286ZM84.1033 66.3647C90.516 62.7423 97.5093 60.9286 105.111 60.9286V57.9286C97.0079 57.9286 89.5041 59.8683 82.6278 63.7527L84.1033 66.3647ZM73.3886 83.2003C73.3886 76.2901 76.6706 70.5096 84.0961 66.3688L82.635 63.7486C74.3553 68.3658 70.3886 75.0968 70.3886 83.2003H73.3886ZM96.3331 101.745C88.3059 100.206 82.5462 97.7735 78.8185 94.6415C75.148 91.5574 73.3886 87.7516 73.3886 83.2003H70.3886C70.3886 88.6581 72.5555 93.2975 76.8886 96.9383C81.1646 100.531 87.4859 103.103 95.768 104.692L96.3331 101.745Z" fill="#182537" mask="url(#path-1-inside-1)"/>
<path d="M340.828 77.571V54.5494H374.966V218.2H341.432V196.429V195.679H340.682H340.078H339.7L339.475 195.982C333.503 204.024 325.74 210.827 316.183 215.777C306.001 220.738 296.451 223.205 286.317 223.205C274.343 223.205 263.59 220.725 254.044 215.782L254.035 215.778L254.027 215.774C243.863 210.82 235.49 204.009 228.304 195.328C215.14 179.215 208.541 159.371 208.541 135.749C208.541 128.284 209.141 121.447 210.342 114.609C211.536 107.806 213.927 101 216.909 95.4416L216.916 95.4275L216.923 95.4131C219.914 89.2184 223.501 83.6439 228.895 77.4374L228.895 77.4375L228.904 77.4268C236.705 68.1049 245.68 60.68 255.216 56.3592C264.786 52.0231 275.554 49.5448 286.921 49.5448C297.678 49.5448 307.82 52.0197 316.761 56.9582C325.724 61.9085 333.48 68.7075 339.447 77.977L340.828 80.1217V77.571ZM340.224 136.375C340.224 129.399 338.998 123.052 336.549 116.712C334.103 110.38 331.034 105.285 326.724 100.822C322.417 96.3618 317.502 93.1845 312.001 90.6523C306.448 88.0962 299.692 86.8302 292.962 86.8302C278.867 86.8302 267.195 91.916 257.992 101.447C248.768 111 244.492 123.713 244.492 138.251C244.492 151.593 249.407 163.038 258.596 172.553C267.809 182.095 279.487 186.545 292.358 186.545C301.53 186.545 309.522 184.643 316.908 180.181C324.263 175.737 329.805 170.006 333.5 162.359C337.772 154.14 340.224 145.267 340.224 136.375Z" fill="white" stroke="#182537" stroke-width="1.5"/>
<path d="M473.569 48.9198C485.564 48.9198 495.72 50.7817 505.265 55.1048C514.224 59.436 523.198 66.2485 530.982 75.5507L530.985 75.5534C535.191 80.5318 539.388 86.1211 542.982 92.3226C546.568 99.1351 548.963 105.952 550.762 113.405C552.556 120.838 553.157 128.282 553.157 135.75C553.157 146.93 551.358 158.094 547.17 168.628L547.163 168.645L547.157 168.663C543.571 179.184 537.59 188.483 530.394 196.557C523.197 204.63 514.827 211.434 504.685 215.758L504.677 215.762L504.67 215.765C495.097 220.103 484.329 222.58 473.569 222.58C453.249 222.58 437.777 215.17 426.454 199.74L426.229 199.434H425.849H425.245H424.495V200.184V272H387.94V54.5499H421.475V75.0693V75.8193H422.225H422.829H423.234L423.456 75.4804C434.793 58.1789 451.468 48.9198 473.569 48.9198ZM493.311 92.5847L493.278 92.563L493.243 92.5449C485.884 88.7343 477.913 86.8308 469.34 86.8308C460.181 86.8308 452.178 88.7278 445.382 93.2021C438.026 97.6486 432.499 103.376 428.21 111.621C423.913 119.254 422.079 127.514 422.079 136.375C422.079 151.555 426.97 164.294 437.438 173.224C441.723 177.027 446.617 180.193 452.114 182.723C457.682 185.286 463.236 185.92 468.132 185.92C477.299 185.92 485.305 184.02 492.702 178.919C500.075 174.459 505.588 168.101 509.861 160.515C514.164 152.875 515.998 144.611 515.998 135.124C515.998 126.879 514.16 118.617 509.861 110.984C505.586 103.395 500.074 97.0415 493.311 92.5847Z" fill="white" stroke="#182537" stroke-width="1.5"/>
<path d="M707.384 75.5678L707.394 75.579L707.405 75.5897C715.173 83.6352 720.563 92.9282 724.765 103.497C728.952 114.028 730.752 125.192 730.752 137C730.752 148.782 728.358 159.948 724.161 170.504C719.969 181.047 713.986 190.339 705.612 198.391L705.602 198.401L705.593 198.411C697.811 206.47 688.837 212.665 678.066 217.003L678.059 217.006L678.052 217.009C667.865 221.353 657.092 223.83 645.727 223.83C630.764 223.83 617.009 220.115 603.842 212.059C591.26 203.991 581.074 193.442 573.281 180.405C565.508 167.4 561.911 152.523 561.911 137C561.911 124.59 564.306 113.424 568.502 102.871C572.687 92.3461 579.27 83.0427 587.07 74.9642C594.853 66.9039 603.829 60.7066 614.003 56.3675C625.985 51.4048 636.758 49.5448 648.748 49.5448C660.113 49.5448 670.886 52.0221 681.072 56.366C691.228 60.6968 700.201 67.5081 707.384 75.5678ZM647.54 86.8302C641.996 86.8302 635.847 88.1042 629.706 91.2785C623.563 93.829 618.649 97.6497 614.364 102.716C605.167 112.25 600.882 123.697 600.882 137.626C600.882 146.492 602.718 154.755 607.019 162.391C611.295 169.984 616.815 176.346 624.198 180.807C631.571 185.261 638.955 187.17 647.54 187.17C656.712 187.17 664.704 185.268 672.089 180.807C679.451 176.36 684.978 170.634 689.268 163.017C693.57 155.381 695.405 147.117 695.405 138.251C695.405 129.386 693.57 121.122 689.268 113.486C685 105.908 679.493 99.5548 672.131 95.0958C664.132 88.7375 656.115 86.8302 647.54 86.8302Z" fill="white" stroke="#182537" stroke-width="1.5"/>
<path d="M785.959 205.456L816.582 125.24H828.604V216.95H821.647V135.124L820.198 134.853L788.369 216.95H781.547L750.321 134.858L748.87 135.124V216.95H741.913V125.24H753.335L784.56 205.46L785.265 207.274L785.959 205.456Z" fill="white" stroke="#182537" stroke-width="1.5"/>
<path d="M901.876 205.689H901.517L901.292 205.969C898.286 209.704 894.755 213.337 890.699 215.137L890.678 215.146L890.658 215.156C885.926 217.607 881.211 218.826 875.902 218.826C865.852 218.826 858.189 215.166 851.675 208.42C845.192 201.706 842.221 193.149 842.221 182.667C842.221 172.22 845.775 163.651 852.28 156.914C858.783 150.179 867.045 146.508 877.11 146.508C882.411 146.508 887.127 147.724 891.263 149.554C895.399 152.008 898.942 155.069 901.896 158.74L903.23 160.398V158.27V147.759H910.187V216.323H903.23V206.439V205.689H902.48H901.876ZM857.241 162.128L857.226 162.144L857.211 162.16C852.278 167.908 849.178 174.959 849.178 183.293C849.178 191.599 851.657 198.041 857.226 203.816C862.217 209.621 869.074 212.193 875.902 212.193C882.807 212.193 889.03 208.936 894.563 203.206L894.577 203.192L894.59 203.177C900.145 196.785 902.626 189.728 902.626 182.041C902.626 174.344 900.137 167.9 894.563 162.128C889.011 156.378 883.388 153.766 876.506 153.766C869.049 153.766 862.816 156.355 857.241 162.128Z" fill="white" stroke="#182537" stroke-width="1.5"/>
<path d="M931.952 174.535V216.949H923.787V147.759H930.744V155.142V157.34L932.087 155.6C932.2 155.455 932.31 155.311 932.42 155.17C934.701 152.211 936.36 150.059 939.029 148.953L939.059 148.941L939.087 148.927C941.287 147.788 943.933 146.683 947.053 146.527V155.106C944.542 155.447 942.284 156.055 940.405 156.879C938.373 157.769 936.737 158.931 935.726 160.323C933.173 163.633 931.952 168.198 931.952 174.535Z" fill="white" stroke="#182537" stroke-width="1.5"/>
<path d="M967.619 180.791V181.763V216.95H960.662V125.24H967.619V178.622V179.54V180.791ZM968.959 180.328L968.833 180.168L968.965 179.994L993.506 147.76H1001.31L978.036 179.093L977.696 179.55L978.045 180L1006.7 216.95H997.728L968.959 180.328Z" fill="white" stroke="#182537" stroke-width="1.5"/>
<path d="M1020.69 184.419H1019.88L1019.94 185.229C1020.56 192.871 1023.03 199.303 1028 204.457C1033.02 209.648 1039.28 211.568 1046.67 211.568C1051.62 211.568 1056.6 210.287 1060.97 207.064C1065.22 204.539 1068.27 200.804 1070.69 195.928H1078.77C1075.82 202.883 1071.78 208.639 1066.16 212.713L1066.14 212.724L1066.13 212.736C1060.86 216.981 1054.39 218.826 1046.67 218.826C1037.23 218.826 1028.96 215.171 1021.84 208.419C1015.32 201.043 1011.78 192.466 1011.78 182.667C1011.78 172.22 1015.33 163.651 1021.84 156.914C1028.34 150.179 1036.6 146.508 1046.67 146.508C1056.74 146.508 1064.98 150.182 1070.87 156.888L1070.87 156.89C1077.34 164.205 1080.32 173.357 1080.35 184.419H1020.69ZM1073.39 177.037V176.954L1073.37 176.874C1071.54 168.644 1068.46 162.851 1064.08 158.96C1059.67 155.049 1053.43 153.141 1046.06 153.141C1039.25 153.141 1033.63 155.073 1028.64 159.591C1023.64 164.122 1021.18 169.934 1019.95 177.543L1019.81 178.412H1020.69H1072.64H1073.39V177.662V177.037Z" fill="white" stroke="#182537" stroke-width="1.5"/>
<path d="M1104.68 156.394V216.95H1097.12V156.394V155.644H1096.37H1084.43V147.76H1096.37H1097.12V147.01V125.24H1104.68V147.01V147.76H1105.43H1117.36V155.644H1105.43H1104.68V156.394Z" fill="white" stroke="#182537" stroke-width="1.5"/>
</g>
<defs>
<clipPath id="clip0">
<rect width="1120" height="274" fill="white"/>
</clipPath>
</defs>
</svg>
