<svg width="30" height="24" viewBox="0 0 30 24" fill="none" xmlns="http://www.w3.org/2000/svg">
<path d="M29.994 13.309C29.9582 12.3589 29.1452 11.6001 27.5732 11.0533C26.3539 10.6363 24.8057 10.3834 23.1321 10.3424V3.0487C23.1261 2.92566 23.0962 2.80946 23.0424 2.70692C22.8751 1.87981 22.0681 1.20991 20.6396 0.717744C19.2947 0.252919 17.5374 0 15.6904 0C13.8494 0 12.11 0.252919 10.789 0.717744C9.70711 1.10054 8.41004 1.81145 8.41004 3.03503C8.41004 3.11023 8.41602 3.18542 8.42797 3.26061L8.49372 6.37767C4.60849 5.53005 0.860729 8.44888 0.125523 12.8852C0.041841 13.3911 0 13.8969 0 14.4096C0 18.9211 3.2098 22.5919 7.15481 22.5919C8.79857 22.5919 10.3885 21.9493 11.6617 20.7599C12.7794 21.0607 14.0944 21.2247 15.4871 21.2384C15.792 23.1319 19.3784 24 22.7197 24C24.5607 24 26.3001 23.7402 27.621 23.2686C28.7029 22.8858 30 22.168 30 20.9445V13.4389C30 13.3979 30 13.35 29.994 13.309ZM21.8828 6.82882C21.8828 6.91769 21.5959 7.38935 20.2989 7.8405C19.0855 8.25748 17.4059 8.50356 15.6964 8.50356C14.22 8.50356 12.7735 8.32583 11.6258 7.99089C11.6079 7.98405 11.5959 7.98405 11.578 7.97722C11.0102 7.46454 10.3825 7.0544 9.70711 6.7673L9.66527 4.83965C10.0777 5.07889 10.5081 5.27029 10.9564 5.40701C12.2534 5.83765 13.9331 6.07007 15.6964 6.07007C17.5374 6.07007 19.3007 5.81715 20.6455 5.35232C21.0938 5.20194 21.5302 5.0037 21.9426 4.75762V6.54856C21.8769 6.64426 21.8828 6.73312 21.8828 6.82882ZM11.1476 2.03703C12.3551 1.61322 13.9689 1.37397 15.6904 1.37397C17.3999 1.37397 19.0795 1.61322 20.2929 2.03703C21.59 2.48818 21.8769 2.953 21.8769 3.04187C21.8769 3.13757 21.584 3.60923 20.2869 4.05355C19.0735 4.47052 17.3999 4.70977 15.6904 4.70977C14.0406 4.70977 12.4746 4.49103 11.2851 4.09456C10 3.67075 9.64136 3.20592 9.61148 3.05554C9.61148 3.04187 9.6055 3.04187 9.6055 3.04187C9.61148 2.91199 9.88643 2.47451 11.1476 2.03703ZM11.1656 19.4543C8.73282 21.9835 4.96115 21.7852 2.74955 19.0031C0.537956 16.221 0.711297 11.9077 3.14405 9.37853C4.2379 8.23697 5.67244 7.60809 7.15481 7.60809C7.75254 7.60809 8.34429 7.71062 8.91811 7.90886C10.9922 8.64711 12.5523 10.6158 12.9946 13.0424C13.0723 13.4936 13.1142 13.9584 13.1142 14.4164C13.1201 16.3372 12.4088 18.1623 11.1656 19.4543ZM12.6838 19.6047C13.168 18.9279 13.5565 18.1692 13.8314 17.3557C14.3395 17.4036 14.8655 17.4378 15.4154 17.4446V17.5676L15.4513 19.8849C14.5248 19.8713 13.5983 19.7756 12.6838 19.6047ZM14.2797 13.603C14.6264 13.6303 14.991 13.644 15.3616 13.6508L15.3975 16.0706C14.9791 16.0638 14.5666 16.0433 14.1721 16.0091C14.2618 15.4828 14.3096 14.9428 14.3096 14.4096C14.3096 14.143 14.2977 13.8764 14.2797 13.603ZM15.7501 12.2905C15.7322 12.2905 15.7083 12.2905 15.6904 12.2905C15.1166 12.2905 14.5607 12.2632 14.0466 12.2222C13.8195 11.3062 13.4608 10.4449 12.9767 9.67929C13.8733 9.80917 14.7759 9.87753 15.6844 9.87753C17.5314 9.87753 19.2947 9.62461 20.6396 9.15978C21.0879 9.0094 21.5182 8.81117 21.9307 8.57192V10.3629C19.3664 10.4449 16.7304 11.0601 15.7501 12.2905ZM16.5392 13.3774C16.5392 13.3706 16.5392 13.3637 16.5451 13.35C16.5989 13.1655 17.0233 12.7143 18.2606 12.3179C19.4202 11.9419 20.9325 11.7368 22.5224 11.7368H22.624C24.3335 11.7368 26.0072 11.9624 27.2265 12.3862C28.4997 12.8237 28.7986 13.2749 28.8045 13.3774V13.3842C28.7986 13.4868 28.4997 13.9584 27.1727 14.4096C25.9474 14.8265 24.3335 15.0521 22.63 15.0521C20.9803 15.0521 19.4142 14.8334 18.2247 14.4437C16.9396 14.0199 16.587 13.5483 16.5511 13.4047C16.5392 13.3774 16.5392 13.3774 16.5392 13.3774ZM27.2744 21.9698C26.0669 22.4005 24.4471 22.6397 22.7256 22.6397C20.9982 22.6397 19.3843 22.4073 18.1889 21.9903C16.9277 21.546 16.6647 21.088 16.6647 20.9855C16.6647 20.9786 16.6647 20.9786 16.6647 20.9718L16.6348 18.9895C17.113 19.2561 17.6091 19.4611 18.1231 19.6115C19.3784 19.9875 20.9743 20.1994 22.6121 20.1994C24.4591 20.1994 26.2104 19.9465 27.5493 19.4816C27.9857 19.3312 28.4041 19.133 28.8045 18.9006V20.9513H28.8105C28.8105 21.047 28.5356 21.5187 27.2744 21.9698ZM28.8165 16.9388H28.8105C28.8105 17.0071 28.7747 17.0891 28.7747 17.1643C28.7747 17.26 28.4937 17.7249 27.2026 18.176C25.9773 18.5998 24.3455 18.8322 22.6181 18.8322C19.3066 18.8322 17.0771 17.9778 16.6109 17.3147L16.6049 16.7405L16.581 15.1683C16.9994 15.4076 17.4357 15.599 17.884 15.7425C19.1811 16.1732 20.8607 16.4056 22.624 16.4056C24.4411 16.4056 26.1745 16.1595 27.5075 15.7083C27.9617 15.5648 28.3981 15.3666 28.8165 15.1205V16.9388V16.9388Z" fill="#CAD6E2"/>
<path d="M10.3305 14.817C10.0556 13.8885 9.16497 13.2505 8.1548 13.2505C7.56903 13.2505 7.09085 12.8005 7.09085 12.2422C7.09682 11.6783 7.56903 11.2283 8.1548 11.2283C8.74058 11.2283 9.21876 11.684 9.21876 12.2422C9.21876 12.5555 9.48774 12.8119 9.81649 12.8119C10.1452 12.8119 10.4142 12.5555 10.4142 12.2422C10.4142 11.2795 9.74476 10.4308 8.77046 10.1687V9.91241C8.77046 9.59911 8.50149 9.34277 8.17274 9.34277C7.84399 9.34277 7.57501 9.59911 7.57501 9.91241V10.1574C6.37357 10.465 5.6563 11.6441 5.97907 12.7891C6.24207 13.729 7.13269 14.3841 8.1548 14.3841C8.74058 14.3841 9.21876 14.8341 9.21876 15.3923C9.21876 15.9506 8.74656 16.4063 8.16078 16.4063C7.57501 16.4063 7.09682 15.9563 7.09682 15.398C7.09682 15.0847 6.82785 14.8284 6.4991 14.8284C6.17035 14.8284 5.90137 15.0847 5.90137 15.398C5.90734 16.3721 6.58876 17.2209 7.57501 17.4772V17.9728C7.57501 18.2861 7.84399 18.5424 8.17274 18.5424C8.50149 18.5424 8.77046 18.2861 8.77046 17.9728V17.4715C9.9719 17.1468 10.6712 15.962 10.3305 14.817Z" fill="#CAD6E2"/>
</svg>
