<svg width="24" height="24" viewBox="0 0 24 24" fill="none" xmlns="http://www.w3.org/2000/svg">
<path d="M9.65625 10.125C9.65625 11.4173 10.7077 12.4688 12 12.4688C12.7754 12.4688 13.4062 13.0996 13.4062 13.875C13.4062 14.6504 12.7754 15.2812 12 15.2812C11.2246 15.2812 10.5938 14.6504 10.5938 13.875C10.5938 13.6161 10.3839 13.4062 10.125 13.4062C9.86611 13.4062 9.65625 13.6161 9.65625 13.875C9.65625 15.0068 10.4627 15.9538 11.5312 16.1716V17.1562C11.5312 17.4151 11.7412 17.625 12 17.625C12.2588 17.625 12.4688 17.4151 12.4688 17.1562V16.1716C13.5373 15.9538 14.3438 15.0069 14.3438 13.875C14.3438 12.5827 13.2923 11.5312 12 11.5312C11.2246 11.5312 10.5938 10.9004 10.5938 10.125C10.5938 9.34959 11.2246 8.71875 12 8.71875C12.7754 8.71875 13.4062 9.34959 13.4062 10.125C13.4062 10.3839 13.6162 10.5938 13.875 10.5938C14.1338 10.5938 14.3438 10.3839 14.3438 10.125C14.3438 8.99316 13.5373 8.04619 12.4688 7.82841V6.84375C12.4688 6.58486 12.2588 6.375 12 6.375C11.7412 6.375 11.5312 6.58486 11.5312 6.84375V7.82841C10.4627 8.04619 9.65625 8.99316 9.65625 10.125Z" fill="#CAD6E2"/>
<path d="M12 0C5.53697 0 0 5.53687 0 12C0 18.463 5.53687 24 12 24C18.4618 24 24 18.4643 24 12C24 5.54808 18.4741 0 12 0ZM12 23.0625C6.10687 23.0625 0.9375 17.8931 0.9375 12C0.9375 6.10687 6.10687 0.9375 12 0.9375C17.8931 0.9375 23.0625 6.10687 23.0625 12C23.0625 17.8931 17.8931 23.0625 12 23.0625Z" fill="#CAD6E2"/>
<path d="M13.9754 3.04552C13.7236 2.9858 13.4708 3.14138 13.411 3.39329C13.3512 3.64515 13.5069 3.89785 13.7587 3.95766C17.4594 4.83633 20.25 8.29388 20.25 12.0001C20.25 16.395 16.3949 20.2501 12 20.2501C7.60514 20.2501 3.75 16.395 3.75 12.0001C3.75 8.29388 6.54061 4.83638 10.2412 3.95766C10.4931 3.89785 10.6488 3.64515 10.589 3.39329C10.5292 3.14138 10.2765 2.98566 10.0246 3.04552C5.94891 4.0133 2.8125 7.82316 2.8125 12.0001C2.8125 16.8845 7.08277 21.1876 12 21.1876C16.8844 21.1876 21.1875 16.9173 21.1875 12.0001C21.1875 7.82677 18.0545 4.0141 13.9754 3.04552Z" fill="#CAD6E2"/>
<path d="M12 3.79688C12.2589 3.79688 12.4688 3.58701 12.4688 3.32812C12.4688 3.06924 12.2589 2.85938 12 2.85938C11.7411 2.85938 11.5312 3.06924 11.5312 3.32812C11.5312 3.58701 11.7411 3.79688 12 3.79688Z" fill="#CAD6E2"/>
</svg>
