<svg width="24" height="24" viewBox="0 0 24 24" fill="none" xmlns="http://www.w3.org/2000/svg">
<path d="M13.4674 24H10.5326C10.3755 23.9989 10.2236 23.9443 10.1016 23.8454C9.97971 23.7464 9.89506 23.609 9.8616 23.4555L9.54377 21.8691C8.56343 21.625 7.62523 21.2353 6.76046 20.713L5.41509 21.6075C5.28422 21.695 5.12727 21.7347 4.97057 21.7201C4.81387 21.7055 4.66697 21.6374 4.55451 21.5273L2.47954 19.4493C2.36766 19.3359 2.29857 19.1872 2.28407 19.0286C2.26956 18.87 2.31054 18.7112 2.4 18.5794L3.29143 17.2423C2.76801 16.3775 2.37857 15.4384 2.13634 14.4569L0.548571 14.1394C0.394332 14.1065 0.255924 14.022 0.156192 13.8998C0.0564593 13.7777 0.00136412 13.6251 0 13.4674V10.5326C0.00114129 10.3755 0.0556638 10.2236 0.154608 10.1016C0.253553 9.97971 0.391033 9.89506 0.544457 9.8616L2.13394 9.54274C2.37622 8.56148 2.76554 7.62252 3.28869 6.75771L2.39246 5.41714C2.30487 5.28621 2.26503 5.12912 2.27964 4.97227C2.29425 4.81542 2.36242 4.66839 2.47269 4.55589L4.55074 2.47817C4.66389 2.3661 4.81243 2.29678 4.971 2.28202C5.12957 2.26726 5.28834 2.30799 5.42023 2.39726L6.75737 3.2904C7.62275 2.76718 8.56179 2.37689 9.54309 2.13257L9.86057 0.548571C9.89348 0.394332 9.978 0.255924 10.1002 0.156192C10.2223 0.0564593 10.3749 0.00136412 10.5326 0H13.4674C13.6245 0.00114129 13.7764 0.0556638 13.8984 0.154608C14.0203 0.253553 14.1049 0.391033 14.1384 0.544457L14.4562 2.13086C15.4392 2.37414 16.3796 2.76474 17.2457 3.28937L18.5829 2.3928C18.7137 2.30483 18.8708 2.26477 19.0278 2.27939C19.1847 2.29401 19.3318 2.36242 19.4441 2.47303L21.5222 4.55074C21.6346 4.66369 21.7042 4.81227 21.7189 4.97094C21.7337 5.12961 21.6927 5.28848 21.6031 5.42023L20.7117 6.76046C21.2342 7.62501 21.6239 8.56313 21.8678 9.54343L23.4487 9.86057C23.6034 9.89293 23.7425 9.97721 23.8427 10.0994C23.943 10.2217 23.9985 10.3745 24 10.5326V13.4674C23.9989 13.6245 23.9443 13.7764 23.8454 13.8984C23.7464 14.0203 23.609 14.1049 23.4555 14.1384L21.8691 14.4566C21.6253 15.4369 21.2355 16.375 20.713 17.2395L21.6079 18.5849C21.6953 18.7158 21.7349 18.8728 21.7203 19.0295C21.7056 19.1862 21.6375 19.3331 21.5273 19.4455L19.4493 21.5235C19.336 21.6354 19.1875 21.7046 19.029 21.7194C18.8705 21.7341 18.7117 21.6935 18.5798 21.6045L17.2426 20.7106C16.3771 21.2351 15.4372 21.6257 14.4549 21.8691L14.1394 23.4514C14.1065 23.6057 14.022 23.7441 13.8998 23.8438C13.7777 23.9435 13.6251 23.9986 13.4674 24ZM6.75429 19.9622C6.81846 19.962 6.88137 19.9801 6.93566 20.0143C7.8497 20.5949 8.85704 21.0135 9.91337 21.2517C9.978 21.2663 10.037 21.2993 10.0833 21.3468C10.1295 21.3942 10.161 21.4541 10.1739 21.5191L10.5329 23.3143H13.4643L13.8271 21.5191C13.8401 21.4541 13.8716 21.3942 13.9179 21.3467C13.9642 21.2992 14.0233 21.2662 14.088 21.2517C15.1443 21.0147 16.1515 20.5961 17.0647 20.0146C17.1216 19.9798 17.1872 19.9618 17.2539 19.9625C17.3206 19.9633 17.3858 19.9829 17.4418 20.0191L18.9638 21.0374L21.0374 18.9645L20.0376 17.4645C20.0247 17.4488 20.0132 17.4321 20.0033 17.4144C19.9735 17.3608 19.9586 17.3002 19.9601 17.2388C19.9617 17.1775 19.9797 17.1177 20.0122 17.0657C20.593 16.1518 21.0116 15.1444 21.2496 14.088C21.2642 14.0234 21.2973 13.9644 21.3447 13.9181C21.3922 13.8719 21.452 13.8404 21.517 13.8274L23.3143 13.4671V10.5326L21.5191 10.1726C21.4541 10.1596 21.3942 10.1281 21.3468 10.0819C21.2993 10.0356 21.2663 9.97663 21.2517 9.912C21.0136 8.85561 20.595 7.84825 20.0143 6.93429C19.9815 6.88243 19.9632 6.82273 19.9613 6.7614C19.9594 6.70006 19.9741 6.63935 20.0037 6.5856C20.0156 6.56371 20.03 6.54323 20.0465 6.52457L21.0367 5.03554L18.9641 2.96126L17.4432 3.98091C17.3871 4.01707 17.322 4.03667 17.2553 4.03746C17.1886 4.03825 17.123 4.02019 17.0661 3.98537C16.1529 3.40387 15.1457 2.98531 14.0894 2.74834C14.0247 2.73377 13.9656 2.70076 13.9193 2.65329C13.873 2.60583 13.8414 2.54595 13.8285 2.48091L13.4671 0.685714H10.5326L10.1729 2.48091C10.16 2.5459 10.1285 2.60575 10.0822 2.65321C10.036 2.70067 9.97697 2.73372 9.91234 2.74834C8.85601 2.98653 7.84867 3.40512 6.93463 3.98571C6.87858 4.02121 6.81344 4.03968 6.74711 4.03888C6.68078 4.03809 6.6161 4.01808 6.56091 3.98126L5.0352 2.96297L2.96126 5.03554L3.98126 6.56057C4.01808 6.61576 4.03809 6.68043 4.03888 6.74677C4.03968 6.8131 4.02121 6.87824 3.98571 6.93429C3.40515 7.84762 2.98752 8.8548 2.75143 9.91097C2.73626 9.97932 2.70053 10.0414 2.64904 10.0888C2.59756 10.1363 2.53279 10.1668 2.46343 10.1763L0.685714 10.5329V13.4674L2.47509 13.8261C2.54193 13.8379 2.60382 13.8691 2.65303 13.9159C2.70223 13.9626 2.73658 14.0229 2.75177 14.089C2.98787 15.1452 3.4055 16.1524 3.98606 17.0657C4.02153 17.1217 4.04002 17.1867 4.03929 17.253C4.03856 17.3193 4.01864 17.3839 3.98194 17.4391L2.96709 18.9645L5.03623 21.0391L6.53623 20.0386C6.5979 19.9892 6.67525 19.9622 6.75429 19.9622Z" fill="#CAD6E2"/>
<path d="M18.1855 9.40102C18.1203 9.40105 18.0564 9.38248 18.0014 9.3475C17.9464 9.31252 17.9025 9.26258 17.8748 9.20354C17.7312 8.90042 17.5637 8.60921 17.3739 8.33268C17.3226 8.25757 17.3033 8.16516 17.3201 8.07579C17.337 7.98642 17.3887 7.90739 17.4638 7.85611C17.5389 7.80482 17.6313 7.78548 17.7206 7.80232C17.81 7.81917 17.889 7.87083 17.9403 7.94594C18.1511 8.25322 18.3367 8.57702 18.4954 8.91417C18.5339 8.99647 18.5382 9.09068 18.5072 9.17612C18.4763 9.26156 18.4128 9.33123 18.3305 9.36982C18.2851 9.39087 18.2355 9.40152 18.1855 9.40102V9.40102Z" fill="#CAD6E2"/>
<path d="M12.0005 19.1895C10.0937 19.1895 8.26494 18.432 6.91661 17.0837C5.56828 15.7353 4.81079 13.9066 4.81079 11.9998C4.81079 10.0929 5.56828 8.26421 6.91661 6.91588C8.26494 5.56754 10.0937 4.81006 12.0005 4.81006C12.2062 4.81006 12.39 4.81829 12.5655 4.83577C12.6534 4.84397 12.7348 4.88575 12.7927 4.95243C12.8505 5.01911 12.8804 5.10554 12.8762 5.19372C12.8732 5.23995 12.861 5.28513 12.8403 5.32659C12.8197 5.36806 12.7909 5.40498 12.7558 5.43519C12.7207 5.4654 12.6799 5.48829 12.6358 5.50252C12.5917 5.51675 12.5452 5.52203 12.499 5.51806C12.3461 5.50297 12.1832 5.49577 12.0015 5.49577C10.7146 5.49523 9.45648 5.87637 8.38623 6.59097C7.31597 7.30557 6.48169 8.32154 5.98892 9.51035C5.49615 10.6992 5.36702 12.0074 5.61787 13.2696C5.86873 14.5318 6.48829 15.6913 7.39819 16.6014C8.3081 17.5114 9.46746 18.1312 10.7296 18.3822C11.9918 18.6333 13.3001 18.5043 14.489 18.0118C15.6779 17.5192 16.694 16.685 17.4087 15.6149C18.1235 14.5448 18.5048 13.2867 18.5045 11.9998C18.5058 11.7237 18.4876 11.448 18.45 11.1745C18.4417 11.1292 18.4426 11.0826 18.4527 11.0376C18.4628 10.9926 18.4819 10.9501 18.5088 10.9126C18.5357 10.8752 18.5698 10.8435 18.6093 10.8196C18.6487 10.7957 18.6925 10.7799 18.7382 10.7733C18.7838 10.7667 18.8303 10.7694 18.8749 10.7812C18.9195 10.793 18.9612 10.8137 18.9976 10.842C19.034 10.8703 19.0644 10.9056 19.0868 10.9459C19.1092 10.9862 19.1233 11.0306 19.1282 11.0765C19.1709 11.3824 19.1916 11.6909 19.1902 11.9998C19.1906 12.944 19.0049 13.8791 18.6437 14.7516C18.2825 15.624 17.7529 16.4168 17.0852 17.0845C16.4175 17.7522 15.6248 18.2817 14.7523 18.6429C13.8799 19.0041 12.9448 19.1898 12.0005 19.1895V19.1895Z" fill="#CAD6E2"/>
<path d="M15.9664 6.76474C15.8932 6.7644 15.8221 6.74034 15.7637 6.69617C15.5044 6.50701 15.2291 6.34078 14.9409 6.19937C14.8593 6.15904 14.7972 6.08798 14.7681 6.00182C14.7389 5.91566 14.7452 5.82146 14.7856 5.73994C14.8259 5.65842 14.8969 5.59626 14.9831 5.56713C15.0693 5.53801 15.1635 5.5443 15.245 5.58463C15.5693 5.74374 15.8791 5.93097 16.1707 6.14417C16.2281 6.18724 16.2706 6.24725 16.2921 6.31574C16.3136 6.38422 16.3131 6.45774 16.2906 6.52591C16.2681 6.59408 16.2248 6.65347 16.1667 6.6957C16.1087 6.73793 16.0388 6.76088 15.9671 6.76131L15.9664 6.76474Z" fill="#CAD6E2"/>
<path d="M17.8259 15.9423C17.7675 15.9423 17.7101 15.9275 17.6591 15.8991C17.6081 15.8707 17.5652 15.8298 17.5345 15.7802C16.9513 14.837 16.1368 14.0586 15.1683 13.5187C14.1997 12.9788 13.1093 12.6954 12.0004 12.6954C10.8916 12.6954 9.80109 12.9788 8.83254 13.5187C7.86399 14.0586 7.04949 14.837 6.46636 15.7802C6.44263 15.8184 6.41159 15.8517 6.37503 15.8779C6.33846 15.9042 6.29707 15.923 6.25323 15.9333C6.2094 15.9436 6.16396 15.9451 6.11952 15.9379C6.07508 15.9306 6.03251 15.9146 5.99424 15.8909C5.95597 15.8672 5.92275 15.8361 5.89647 15.7996C5.87019 15.763 5.85138 15.7216 5.84109 15.6778C5.83081 15.6339 5.82926 15.5885 5.83654 15.5441C5.84381 15.4996 5.85977 15.4571 5.8835 15.4188C6.5281 14.3765 7.42837 13.5162 8.49886 12.9196C9.56935 12.3229 10.7745 12.0098 12.0001 12.0098C13.2256 12.0098 14.4308 12.3229 15.5013 12.9196C16.5718 13.5162 17.472 14.3765 18.1166 15.4188C18.1488 15.4707 18.1666 15.5303 18.168 15.5913C18.1695 15.6524 18.1546 15.7127 18.1249 15.7661C18.0952 15.8195 18.0518 15.8639 17.9992 15.8949C17.9466 15.9259 17.8866 15.9423 17.8256 15.9423H17.8259Z" fill="#CAD6E2"/>
<path d="M12.0001 12.6975C11.5088 12.6975 11.0285 12.5518 10.62 12.2788C10.2115 12.0059 9.89316 11.6179 9.70517 11.164C9.51717 10.7101 9.468 10.2106 9.56387 9.72876C9.65974 9.2469 9.89636 8.8043 10.2438 8.45692C10.5912 8.10954 11.0339 7.87299 11.5157 7.77718C11.9976 7.68137 12.4971 7.73061 12.9509 7.91867C13.4048 8.10674 13.7928 8.42517 14.0657 8.83371C14.3386 9.24224 14.4842 9.72253 14.4841 10.2138C14.4833 10.8724 14.2213 11.5037 13.7557 11.9693C13.29 12.4349 12.6586 12.6968 12.0001 12.6975ZM12.0001 8.41555C11.6444 8.41555 11.2968 8.52102 11.001 8.71862C10.7053 8.91621 10.4748 9.19707 10.3387 9.52566C10.2026 9.85426 10.167 10.2158 10.2364 10.5647C10.3058 10.9135 10.477 11.2339 10.7285 11.4854C10.98 11.7369 11.3005 11.9082 11.6493 11.9776C11.9981 12.047 12.3597 12.0113 12.6883 11.8752C13.0169 11.7391 13.2977 11.5086 13.4953 11.2129C13.6929 10.9172 13.7984 10.5695 13.7984 10.2138C13.798 9.73704 13.6083 9.2799 13.2712 8.94276C12.9341 8.60561 12.4769 8.416 12.0001 8.41555Z" fill="#CAD6E2"/>
</svg>
