<svg width="24" height="24" viewBox="0 0 24 24" fill="none" xmlns="http://www.w3.org/2000/svg">
<path d="M21.9959 4.4C21.997 4.29445 21.9506 4.1928 21.8668 4.1172L17.3214 0.1172C17.2359 0.043 17.1201 0.0021 17 0.0036V0H3.36364C2.61051 0 2 0.53725 2 1.2V22.8C2 23.4628 2.61051 24 3.36364 24H20.6364C21.3895 24 22 23.4628 22 22.8V4.4H21.9959ZM17.4545 1.3656L20.4482 4H17.9091C17.6581 4 17.4545 3.8209 17.4545 3.6V1.3656ZM21.0909 22.8C21.0909 23.0209 20.8874 23.2 20.6364 23.2H3.36364C3.11261 23.2 2.90909 23.0209 2.90909 22.8V1.2C2.90909 0.9791 3.11261 0.8 3.36364 0.8H16.5455V3.6C16.5455 4.26275 17.156 4.8 17.9091 4.8H21.0909V22.8Z" fill="#CAD6E2"/>
<mask id="path-2-inside-1" fill="white">
<path d="M6.54552 10.8C5.7924 10.8 5.18188 11.3373 5.18188 12C5.18188 12.6628 5.7924 13.2 6.54552 13.2C7.29865 13.2 7.90916 12.6628 7.90916 12C7.90916 11.3373 7.29865 10.8 6.54552 10.8ZM6.54552 12.4C6.2945 12.4 6.09098 12.2209 6.09098 12C6.09098 11.7791 6.2945 11.6 6.54552 11.6C6.79654 11.6 7.00007 11.7791 7.00007 12C7.00007 12.2209 6.79654 12.4 6.54552 12.4Z"/>
</mask>
<path d="M6.54552 10.8C5.7924 10.8 5.18188 11.3373 5.18188 12C5.18188 12.6628 5.7924 13.2 6.54552 13.2C7.29865 13.2 7.90916 12.6628 7.90916 12C7.90916 11.3373 7.29865 10.8 6.54552 10.8ZM6.54552 12.4C6.2945 12.4 6.09098 12.2209 6.09098 12C6.09098 11.7791 6.2945 11.6 6.54552 11.6C6.79654 11.6 7.00007 11.7791 7.00007 12C7.00007 12.2209 6.79654 12.4 6.54552 12.4Z" fill="#CAD6E2"/>
<path d="M6.54552 7.80005C4.50738 7.80005 2.18188 9.33158 2.18188 12H8.18188C8.18188 12.6311 7.88428 13.1211 7.56316 13.4037C7.24783 13.6812 6.87914 13.8 6.54552 13.8V7.80005ZM2.18188 12C2.18188 14.6685 4.50738 16.2 6.54552 16.2V10.2C6.87914 10.2 7.24783 10.3189 7.56316 10.5964C7.88428 10.879 8.18188 11.369 8.18188 12H2.18188ZM6.54552 16.2C8.58366 16.2 10.9092 14.6685 10.9092 12H4.90916C4.90916 11.369 5.20676 10.879 5.52788 10.5964C5.84321 10.3189 6.2119 10.2 6.54552 10.2V16.2ZM10.9092 12C10.9092 9.33158 8.58366 7.80005 6.54552 7.80005V13.8C6.2119 13.8 5.84321 13.6812 5.52788 13.4037C5.20676 13.1211 4.90916 12.6311 4.90916 12H10.9092ZM6.54552 9.40004C7.57951 9.40004 9.09098 10.2152 9.09098 12H3.09098C3.09098 14.2267 5.00948 15.4 6.54552 15.4V9.40004ZM9.09098 12C9.09098 13.7849 7.57951 14.6 6.54552 14.6V8.60005C5.00948 8.60005 3.09098 9.77343 3.09098 12H9.09098ZM6.54552 14.6C5.51153 14.6 4.00007 13.7849 4.00007 12H10.0001C10.0001 9.77343 8.08156 8.60005 6.54552 8.60005V14.6ZM4.00007 12C4.00007 10.2152 5.51153 9.40004 6.54552 9.40004V15.4C8.08156 15.4 10.0001 14.2267 10.0001 12H4.00007Z" fill="#CAD6E2" mask="url(#path-2-inside-1)"/>
<mask id="path-4-inside-2" fill="white">
<path d="M18.818 11.6H9.72705V12.4H18.818V11.6Z"/>
</mask>
<path d="M18.818 11.6H9.72705V12.4H18.818V11.6Z" fill="#CAD6E2"/>
<path d="M9.72705 11.6V8.59998H6.72705V11.6H9.72705ZM18.818 11.6H21.818V8.59998H18.818V11.6ZM18.818 12.4V15.4H21.818V12.4H18.818ZM9.72705 12.4H6.72705V15.4H9.72705V12.4ZM9.72705 14.6H18.818V8.59998H9.72705V14.6ZM15.818 11.6V12.4H21.818V11.6H15.818ZM18.818 9.39998H9.72705V15.4H18.818V9.39998ZM12.7271 12.4V11.6H6.72705V12.4H12.7271Z" fill="#CAD6E2" mask="url(#path-4-inside-2)"/>
<mask id="path-6-inside-3" fill="white">
<path d="M6.54552 6.80005C5.7924 6.80005 5.18188 7.3373 5.18188 8.00005C5.18188 8.66279 5.7924 9.20004 6.54552 9.20004C7.29865 9.20004 7.90916 8.66279 7.90916 8.00005C7.90916 7.3373 7.29865 6.80005 6.54552 6.80005ZM6.54552 8.40004C6.2945 8.40004 6.09098 8.22095 6.09098 8.00005C6.09098 7.77915 6.2945 7.60005 6.54552 7.60005C6.79654 7.60005 7.00007 7.77915 7.00007 8.00005C7.00007 8.22095 6.79654 8.40004 6.54552 8.40004Z"/>
</mask>
<path d="M6.54552 6.80005C5.7924 6.80005 5.18188 7.3373 5.18188 8.00005C5.18188 8.66279 5.7924 9.20004 6.54552 9.20004C7.29865 9.20004 7.90916 8.66279 7.90916 8.00005C7.90916 7.3373 7.29865 6.80005 6.54552 6.80005ZM6.54552 8.40004C6.2945 8.40004 6.09098 8.22095 6.09098 8.00005C6.09098 7.77915 6.2945 7.60005 6.54552 7.60005C6.79654 7.60005 7.00007 7.77915 7.00007 8.00005C7.00007 8.22095 6.79654 8.40004 6.54552 8.40004Z" fill="#CAD6E2"/>
<path d="M6.54552 3.80005C4.50738 3.80005 2.18188 5.33158 2.18188 8.00005H8.18188C8.18188 8.63113 7.88428 9.12108 7.56316 9.40366C7.24783 9.68115 6.87914 9.80005 6.54552 9.80005V3.80005ZM2.18188 8.00005C2.18188 10.6685 4.50738 12.2 6.54552 12.2V6.20004C6.87914 6.20004 7.24783 6.31894 7.56316 6.59643C7.88428 6.87902 8.18188 7.36896 8.18188 8.00005H2.18188ZM6.54552 12.2C8.58366 12.2 10.9092 10.6685 10.9092 8.00005H4.90916C4.90916 7.36896 5.20676 6.87902 5.52788 6.59643C5.84321 6.31894 6.2119 6.20004 6.54552 6.20004V12.2ZM10.9092 8.00005C10.9092 5.33158 8.58366 3.80005 6.54552 3.80005V9.80005C6.2119 9.80005 5.84321 9.68115 5.52788 9.40366C5.20676 9.12108 4.90916 8.63113 4.90916 8.00005H10.9092ZM6.54552 5.40004C7.57951 5.40004 9.09098 6.21523 9.09098 8.00005H3.09098C3.09098 10.2267 5.00948 11.4 6.54552 11.4V5.40004ZM9.09098 8.00005C9.09098 9.78486 7.57951 10.6 6.54552 10.6V4.60005C5.00948 4.60005 3.09098 5.77343 3.09098 8.00005H9.09098ZM6.54552 10.6C5.51153 10.6 4.00007 9.78486 4.00007 8.00005H10.0001C10.0001 5.77343 8.08156 4.60005 6.54552 4.60005V10.6ZM4.00007 8.00005C4.00007 6.21523 5.51153 5.40004 6.54552 5.40004V11.4C8.08156 11.4 10.0001 10.2267 10.0001 8.00005H4.00007Z" fill="#CAD6E2" mask="url(#path-6-inside-3)"/>
<mask id="path-8-inside-4" fill="white">
<path d="M18.818 7.6001H9.72705V8.4001H18.818V7.6001Z"/>
</mask>
<path d="M18.818 7.6001H9.72705V8.4001H18.818V7.6001Z" fill="#CAD6E2"/>
<path d="M9.72705 7.6001V4.6001H6.72705V7.6001H9.72705ZM18.818 7.6001H21.818V4.6001H18.818V7.6001ZM18.818 8.4001V11.4001H21.818V8.4001H18.818ZM9.72705 8.4001H6.72705V11.4001H9.72705V8.4001ZM9.72705 10.6001H18.818V4.6001H9.72705V10.6001ZM15.818 7.6001V8.4001H21.818V7.6001H15.818ZM18.818 5.4001H9.72705V11.4001H18.818V5.4001ZM12.7271 8.4001V7.6001H6.72705V8.4001H12.7271Z" fill="#CAD6E2" mask="url(#path-8-inside-4)"/>
<mask id="path-10-inside-5" fill="white">
<path d="M6.54552 14.8C5.7924 14.8 5.18188 15.3373 5.18188 16C5.18188 16.6628 5.7924 17.2 6.54552 17.2C7.29865 17.2 7.90916 16.6628 7.90916 16C7.90916 15.3373 7.29865 14.8 6.54552 14.8ZM6.54552 16.4C6.2945 16.4 6.09098 16.2209 6.09098 16C6.09098 15.7791 6.2945 15.6 6.54552 15.6C6.79654 15.6 7.00007 15.7791 7.00007 16C7.00007 16.2209 6.79654 16.4 6.54552 16.4Z"/>
</mask>
<path d="M6.54552 14.8C5.7924 14.8 5.18188 15.3373 5.18188 16C5.18188 16.6628 5.7924 17.2 6.54552 17.2C7.29865 17.2 7.90916 16.6628 7.90916 16C7.90916 15.3373 7.29865 14.8 6.54552 14.8ZM6.54552 16.4C6.2945 16.4 6.09098 16.2209 6.09098 16C6.09098 15.7791 6.2945 15.6 6.54552 15.6C6.79654 15.6 7.00007 15.7791 7.00007 16C7.00007 16.2209 6.79654 16.4 6.54552 16.4Z" fill="#CAD6E2"/>
<path d="M6.54552 11.8C4.50738 11.8 2.18188 13.3316 2.18188 16H8.18188C8.18188 16.6311 7.88428 17.1211 7.56316 17.4037C7.24783 17.6812 6.87914 17.8 6.54552 17.8V11.8ZM2.18188 16C2.18188 18.6685 4.50738 20.2 6.54552 20.2V14.2C6.87914 14.2 7.24783 14.3189 7.56316 14.5964C7.88428 14.879 8.18188 15.369 8.18188 16H2.18188ZM6.54552 20.2C8.58366 20.2 10.9092 18.6685 10.9092 16H4.90916C4.90916 15.369 5.20676 14.879 5.52788 14.5964C5.84321 14.3189 6.2119 14.2 6.54552 14.2V20.2ZM10.9092 16C10.9092 13.3316 8.58366 11.8 6.54552 11.8V17.8C6.2119 17.8 5.84321 17.6812 5.52788 17.4037C5.20676 17.1211 4.90916 16.6311 4.90916 16H10.9092ZM6.54552 13.4C7.57951 13.4 9.09098 14.2152 9.09098 16H3.09098C3.09098 18.2267 5.00948 19.4 6.54552 19.4V13.4ZM9.09098 16C9.09098 17.7849 7.57951 18.6 6.54552 18.6V12.6C5.00948 12.6 3.09098 13.7734 3.09098 16H9.09098ZM6.54552 18.6C5.51153 18.6 4.00007 17.7849 4.00007 16H10.0001C10.0001 13.7734 8.08156 12.6 6.54552 12.6V18.6ZM4.00007 16C4.00007 14.2152 5.51153 13.4 6.54552 13.4V19.4C8.08156 19.4 10.0001 18.2267 10.0001 16H4.00007Z" fill="#CAD6E2" mask="url(#path-10-inside-5)"/>
<mask id="path-12-inside-6" fill="white">
<path d="M18.818 15.5999H9.72705V16.3999H18.818V15.5999Z"/>
</mask>
<path d="M18.818 15.5999H9.72705V16.3999H18.818V15.5999Z" fill="#CAD6E2"/>
<path d="M9.72705 15.5999V12.5999H6.72705V15.5999H9.72705ZM18.818 15.5999H21.818V12.5999H18.818V15.5999ZM18.818 16.3999V19.3999H21.818V16.3999H18.818ZM9.72705 16.3999H6.72705V19.3999H9.72705V16.3999ZM9.72705 18.5999H18.818V12.5999H9.72705V18.5999ZM15.818 15.5999V16.3999H21.818V15.5999H15.818ZM18.818 13.3999H9.72705V19.3999H18.818V13.3999ZM12.7271 16.3999V15.5999H6.72705V16.3999H12.7271Z" fill="#CAD6E2" mask="url(#path-12-inside-6)"/>
<mask id="path-14-inside-7" fill="white">
<path d="M6.54552 18.8C5.7924 18.8 5.18188 19.3373 5.18188 20C5.18188 20.6628 5.7924 21.2 6.54552 21.2C7.29865 21.2 7.90916 20.6628 7.90916 20C7.90916 19.3373 7.29865 18.8 6.54552 18.8ZM6.54552 20.4C6.2945 20.4 6.09098 20.2209 6.09098 20C6.09098 19.7791 6.2945 19.6 6.54552 19.6C6.79654 19.6 7.00007 19.7791 7.00007 20C7.00007 20.2209 6.79654 20.4 6.54552 20.4Z"/>
</mask>
<path d="M6.54552 18.8C5.7924 18.8 5.18188 19.3373 5.18188 20C5.18188 20.6628 5.7924 21.2 6.54552 21.2C7.29865 21.2 7.90916 20.6628 7.90916 20C7.90916 19.3373 7.29865 18.8 6.54552 18.8ZM6.54552 20.4C6.2945 20.4 6.09098 20.2209 6.09098 20C6.09098 19.7791 6.2945 19.6 6.54552 19.6C6.79654 19.6 7.00007 19.7791 7.00007 20C7.00007 20.2209 6.79654 20.4 6.54552 20.4Z" fill="#CAD6E2"/>
<path d="M6.54552 15.8C4.50738 15.8 2.18188 17.3316 2.18188 20H8.18188C8.18188 20.6311 7.88428 21.1211 7.56316 21.4037C7.24783 21.6812 6.87914 21.8 6.54552 21.8V15.8ZM2.18188 20C2.18188 22.6685 4.50738 24.2 6.54552 24.2V18.2C6.87914 18.2 7.24783 18.3189 7.56316 18.5964C7.88428 18.879 8.18188 19.369 8.18188 20H2.18188ZM6.54552 24.2C8.58366 24.2 10.9092 22.6685 10.9092 20H4.90916C4.90916 19.369 5.20676 18.879 5.52788 18.5964C5.84321 18.3189 6.2119 18.2 6.54552 18.2V24.2ZM10.9092 20C10.9092 17.3316 8.58366 15.8 6.54552 15.8V21.8C6.2119 21.8 5.84321 21.6812 5.52788 21.4037C5.20676 21.1211 4.90916 20.6311 4.90916 20H10.9092ZM6.54552 17.4C7.57951 17.4 9.09098 18.2152 9.09098 20H3.09098C3.09098 22.2267 5.00948 23.4 6.54552 23.4V17.4ZM9.09098 20C9.09098 21.7849 7.57951 22.6 6.54552 22.6V16.6C5.00948 16.6 3.09098 17.7734 3.09098 20H9.09098ZM6.54552 22.6C5.51153 22.6 4.00007 21.7849 4.00007 20H10.0001C10.0001 17.7734 8.08156 16.6 6.54552 16.6V22.6ZM4.00007 20C4.00007 18.2152 5.51153 17.4 6.54552 17.4V23.4C8.08156 23.4 10.0001 22.2267 10.0001 20H4.00007Z" fill="#CAD6E2" mask="url(#path-14-inside-7)"/>
<mask id="path-16-inside-8" fill="white">
<path d="M18.818 19.6001H9.72705V20.4001H18.818V19.6001Z"/>
</mask>
<path d="M18.818 19.6001H9.72705V20.4001H18.818V19.6001Z" fill="#CAD6E2"/>
<path d="M9.72705 19.6001V16.6001H6.72705V19.6001H9.72705ZM18.818 19.6001H21.818V16.6001H18.818V19.6001ZM18.818 20.4001V23.4001H21.818V20.4001H18.818ZM9.72705 20.4001H6.72705V23.4001H9.72705V20.4001ZM9.72705 22.6001H18.818V16.6001H9.72705V22.6001ZM15.818 19.6001V20.4001H21.818V19.6001H15.818ZM18.818 17.4001H9.72705V23.4001H18.818V17.4001ZM12.7271 20.4001V19.6001H6.72705V20.4001H12.7271Z" fill="#CAD6E2" mask="url(#path-16-inside-8)"/>
</svg>
