<svg width="24" height="24" viewBox="0 0 24 24" fill="none" xmlns="http://www.w3.org/2000/svg">
<path d="M16.1688 6.45972H3.22265C3.00299 6.45972 2.82495 6.61778 2.82495 6.81278C2.82495 7.00778 3.00299 7.16584 3.22265 7.16584H16.1688C16.3885 7.16584 16.5665 7.00778 16.5665 6.81278C16.5665 6.61778 16.3884 6.45972 16.1688 6.45972Z" fill="#CAD6E2"/>
<path d="M3.22265 4.71662H9.69568C9.91533 4.71662 10.0934 4.55856 10.0934 4.36356C10.0934 4.16856 9.91533 4.0105 9.69568 4.0105H3.22265C3.00299 4.0105 2.82495 4.16856 2.82495 4.36356C2.82495 4.55861 3.00299 4.71662 3.22265 4.71662V4.71662Z" fill="#CAD6E2"/>
<path d="M16.1688 8.62952H3.22265C3.00299 8.62952 2.82495 8.78758 2.82495 8.98258C2.82495 9.17758 3.00299 9.33564 3.22265 9.33564H16.1688C16.3885 9.33564 16.5665 9.17758 16.5665 8.98258C16.5665 8.78758 16.3884 8.62952 16.1688 8.62952Z" fill="#CAD6E2"/>
<path d="M6.17176 21.5469H2.02865C1.34863 21.5469 0.795336 21.0558 0.795336 20.4521V1.80099C0.795336 1.19728 1.34863 0.706079 2.02865 0.706079H13.9645C14.0031 0.706079 14.0411 0.709219 14.0786 0.713719V2.91563C14.0786 3.90872 14.9887 4.71661 16.1072 4.71661H18.5874C18.5926 4.74999 18.5961 4.78369 18.5961 4.81791V10.8301C18.5961 11.0251 18.7741 11.1832 18.9938 11.1832C19.2134 11.1832 19.3914 11.0251 19.3914 10.8301V4.81796C19.3914 4.43067 19.2215 4.06655 18.9131 3.79266L15.1193 0.424688C14.8109 0.150844 14.4008 0 13.9645 0H2.02865C0.910018 0 0 0.807938 0 1.80099V20.4521C0 21.4451 0.910071 22.253 2.02865 22.253H6.17176C6.39141 22.253 6.56945 22.095 6.56945 21.9C6.56945 21.705 6.39141 21.5469 6.17176 21.5469V21.5469ZM18.0337 4.01053H16.1073C15.4273 4.01053 14.874 3.51933 14.874 2.91563V1.20544L18.0337 4.01053Z" fill="#CAD6E2"/>
<path d="M23.8779 17.2841L20.5083 12.2348C20.2627 11.8666 19.7282 11.7449 19.3133 11.9631L18.4937 12.3942C17.8575 12.7288 17.5886 13.4059 17.807 14.006C17.5309 14.0948 17.2281 14.0934 16.9493 13.9977C16.3022 13.817 15.8102 13.4534 14.9977 13.6358C13.618 13.9477 13.6599 13.9321 13.5351 13.97C12.7272 13.5617 12.2416 13.4402 11.3841 13.7347L10.6196 13.9971C10.2657 14.1185 9.8757 14.0897 9.54865 13.9177L9.34003 13.8085C9.44183 13.267 9.17134 12.6955 8.59856 12.3943C8.59856 12.3943 8.59855 12.3943 8.5985 12.3943L7.77893 11.9632C7.36519 11.7457 6.82915 11.8674 6.58405 12.2348L3.21432 17.2842C2.96874 17.6522 3.10539 18.1268 3.52019 18.345L4.33976 18.776C4.58777 18.9065 4.86032 18.9685 5.12961 18.9685C5.42989 18.9685 5.72594 18.8912 5.97906 18.7457L6.14987 18.8352L5.78925 19.2811C5.3595 19.8126 5.49604 20.5516 6.0948 20.9332C6.37169 21.1096 6.71954 21.1902 7.07927 21.1401C7.13635 21.4363 7.31914 21.7135 7.61514 21.9022C7.89314 22.0794 8.23941 22.1601 8.59977 22.1097C8.65701 22.4056 8.8397 22.6826 9.13554 22.8712C9.53313 23.1246 10.0274 23.1539 10.4393 22.9977C10.5295 23.2055 10.6861 23.3932 10.9047 23.5325C11.4753 23.8961 12.2614 23.8013 12.7049 23.3302L13.6632 23.8342C14.297 24.1676 15.1147 23.9823 15.4905 23.419C15.5866 23.275 15.6462 23.1181 15.668 22.9568L15.6701 22.958C16.303 23.2907 17.1225 23.1044 17.4974 22.5428C17.606 22.3801 17.6655 22.2036 17.6799 22.0267C18.2377 22.1512 18.8456 21.9432 19.1534 21.482C19.2545 21.3307 19.313 21.1672 19.3323 21.0027C19.9301 21.211 20.6288 21.0097 20.9664 20.5038C21.148 20.2317 21.1994 19.9132 21.111 19.6067C21.0605 19.4314 20.9676 19.2723 20.84 19.1379L21.3682 18.8639C21.8151 19.0268 22.325 19.0007 22.7524 18.776L23.5719 18.3449C23.9867 18.1269 24.1237 17.6524 23.8779 17.2841V17.2841ZM4.74517 18.1686L3.9256 17.7375C3.88916 17.7183 3.87707 17.6764 3.89861 17.644L7.26835 12.5945C7.29005 12.562 7.33741 12.5515 7.37363 12.5706L8.19315 13.0016C8.55732 13.1932 8.67126 13.6079 8.45943 13.9253L5.78555 17.9321C5.57213 18.252 5.10548 18.358 4.74517 18.1686V18.1686ZM6.5586 20.3596C6.31709 20.2057 6.26186 19.9074 6.43537 19.6929L6.96543 19.0374C7.13429 18.8286 7.47079 18.7715 7.71636 18.928C7.9574 19.0816 8.01268 19.3806 7.8397 19.5946L7.30959 20.2501C7.13656 20.4642 6.79953 20.5131 6.5586 20.3596V20.3596ZM8.079 21.3286C7.83796 21.175 7.78268 20.8759 7.95571 20.6619L8.48577 20.0065C8.48577 20.0065 8.48577 20.0065 8.48577 20.0064C8.48577 20.0064 8.48577 20.0064 8.48583 20.0064L9.0708 19.283C9.15465 19.1794 9.27889 19.1109 9.42071 19.0902C9.45018 19.0859 9.47969 19.0838 9.509 19.0838C9.62062 19.0838 9.72923 19.1146 9.82173 19.1736C9.93842 19.248 10.0156 19.3583 10.0389 19.4842C10.0621 19.6101 10.0288 19.7365 9.94497 19.8402L8.82987 21.2191C8.65658 21.4336 8.32061 21.4827 8.079 21.3286V21.3286ZM9.59939 22.2976C9.35846 22.144 9.30313 21.8452 9.47584 21.6312C9.47589 21.6311 9.476 21.631 9.47605 21.6309L10.5911 20.252C10.7641 20.0381 11.1011 19.989 11.3421 20.1425C11.5831 20.2961 11.6384 20.5952 11.4654 20.8092L10.9699 21.4219C10.9699 21.4219 10.9699 21.4219 10.9699 21.4219L10.3503 22.1881C10.1772 22.4021 9.84048 22.4513 9.59939 22.2976V22.2976ZM11.3685 22.9589C11.1277 22.8054 11.0723 22.5066 11.2449 22.2926L11.616 21.8337C11.789 21.6197 12.126 21.5708 12.3669 21.7243C12.6079 21.8778 12.6633 22.1769 12.4902 22.3909L12.1194 22.8494C11.9464 23.0634 11.6095 23.1126 11.3685 22.9589V22.9589ZM20.2823 20.144C20.1309 20.3707 19.8002 20.4459 19.5448 20.3116C19.1122 20.0841 16.322 18.6166 16.0245 18.4601C15.8355 18.3608 15.5916 18.4161 15.4797 18.5839C15.3678 18.7516 15.4301 18.9682 15.6191 19.0676L18.2804 20.4673L18.2804 20.4674C18.5359 20.6017 18.6212 20.8944 18.4693 21.1222C18.3179 21.349 17.987 21.424 17.7316 21.2898C16.7473 20.7721 15.9481 20.3518 15.0689 19.8894C14.8798 19.79 14.636 19.8453 14.5241 20.0131C14.4121 20.1809 14.4745 20.3974 14.6634 20.4968L16.6244 21.5281L16.6248 21.5284C16.8804 21.6631 16.9648 21.9557 16.8132 22.183C16.6618 22.4098 16.331 22.485 16.0755 22.3506L15.0232 21.7972C15.0231 21.7971 15.0229 21.7971 15.0228 21.797C15.0227 21.7969 15.0226 21.7969 15.0225 21.7968L14.2545 21.3929C14.0655 21.2934 13.8216 21.3488 13.7097 21.5166C13.5977 21.6844 13.6601 21.9009 13.849 22.0003L14.6172 22.4043C14.6173 22.4044 14.6174 22.4045 14.6175 22.4045C14.873 22.5389 14.9582 22.8316 14.8063 23.0593C14.6549 23.2861 14.3241 23.3612 14.0686 23.2269L13.1726 22.7557C13.5567 22.2294 13.4106 21.5203 12.8308 21.1509C12.6605 21.0424 12.4709 20.9748 12.277 20.9458C12.4827 20.4575 12.3053 19.8874 11.8059 19.5691C11.5102 19.3806 11.1562 19.3155 10.822 19.362C10.7626 19.0533 10.5725 18.783 10.2856 18.6002C9.74607 18.2565 9.01288 18.3225 8.56001 18.7292C8.46798 18.5858 8.34094 18.457 8.18022 18.3546C7.73189 18.069 7.14981 18.0663 6.70597 18.3069L6.52376 18.2114L9.02492 14.4633L9.14399 14.5257C9.66988 14.8022 10.3116 14.8599 10.9064 14.6557L11.6708 14.3933C12.1083 14.2433 12.3495 14.2335 12.7822 14.4147C12.4991 14.6971 12.331 15.0678 12.331 15.4674V17.0328C12.331 17.4486 12.7118 17.7871 13.1797 17.7873H13.1809C13.6503 17.7873 14.0917 17.6251 14.4238 17.3305C14.6173 17.1587 14.7602 16.954 14.8459 16.7305C15.3594 17.0004 19.6017 19.2307 20.0936 19.4894C20.2173 19.5545 20.305 19.6584 20.3407 19.7821C20.3763 19.9056 20.3556 20.0341 20.2823 20.144V20.144ZM23.1667 17.7375L22.347 18.1686C21.9867 18.3579 21.5201 18.2519 21.3068 17.9322L20.0535 16.0541C19.9415 15.8864 19.6975 15.831 19.5086 15.9303C19.3197 16.0297 19.2573 16.2462 19.3691 16.414L20.6224 18.2921C20.646 18.3274 20.6716 18.361 20.6981 18.3938L20.3497 18.5745C20.2793 18.6115 20.2115 18.6523 20.1467 18.6966L14.744 15.8562C14.4793 15.7171 14.1437 15.8867 14.1437 16.16C14.1396 16.1811 14.1848 16.544 13.8615 16.8309C13.6797 16.9922 13.4379 17.0811 13.1809 17.0811C13.1806 17.0811 13.1804 17.0811 13.1802 17.0811C13.1505 17.0811 13.1263 17.0593 13.1263 17.0326V15.4672C13.1263 15.0583 13.4432 14.7133 13.8718 14.6169L15.1927 14.3202C15.6719 14.2126 15.9429 14.4398 16.6605 14.6555C17.1586 14.8266 17.7003 14.816 18.1811 14.6337L18.4212 14.9934C18.5331 15.1613 18.7771 15.2166 18.966 15.1173C19.155 15.0179 19.2174 14.8013 19.1055 14.6336L18.6327 13.9252C18.4188 13.6046 18.538 13.1916 18.899 13.0016L19.7186 12.5706C19.7544 12.5517 19.8017 12.5613 19.8239 12.5945L23.1935 17.6439C23.2153 17.6765 23.2033 17.7182 23.1667 17.7375V17.7375Z" fill="#CAD6E2"/>
</svg>
