<svg width="24" height="24" viewBox="0 0 24 24" fill="none" xmlns="http://www.w3.org/2000/svg">
<path d="M20.9062 2.22337V1.40625C20.9062 0.630844 20.2754 0 19.5 0H4.5C3.72459 0 3.09375 0.630844 3.09375 1.40625V2.22337C0.0362345 7.87012 0.000140625 7.70245 0 7.96823C0 7.96842 0 7.96856 0 7.96875V8.90625C0 9.71873 0.469781 10.4744 1.21875 10.9041V23.5312C1.21875 23.7901 1.42866 24 1.6875 24H22.3125C22.5713 24 22.7812 23.7901 22.7812 23.5312V10.9041C23.5227 10.4747 24 9.7102 24 8.90625V7.96875C24 7.96856 24 7.96842 24 7.96823C23.9999 7.69959 23.934 7.81505 20.9062 2.22337ZM22.7385 7.5H19.8379L18.2754 2.8125H20.1604L22.7385 7.5ZM16.2188 8.4375H19.0312V8.90625C19.0312 9.68166 18.4004 10.3125 17.625 10.3125C16.8496 10.3125 16.2188 9.68166 16.2188 8.90625V8.4375ZM16.1471 7.5L15.3659 2.8125H17.2871L18.8496 7.5H16.1471ZM4.03125 1.40625C4.03125 1.14778 4.24153 0.9375 4.5 0.9375H19.5C19.7585 0.9375 19.9688 1.14778 19.9688 1.40625V1.875C19.5224 1.875 4.48106 1.875 4.03125 1.875V1.40625ZM15.2812 8.4375V8.90625C15.2812 9.68166 14.6504 10.3125 13.875 10.3125C13.0996 10.3125 12.4688 9.68166 12.4688 8.90625V8.4375H15.2812ZM12.4688 7.5V2.8125H14.4154L15.1967 7.5H12.4688ZM8.80336 7.5L9.58463 2.8125H11.5312V7.5H8.80336ZM11.5312 8.4375V8.90625C11.5312 9.68166 10.9004 10.3125 10.125 10.3125C9.34959 10.3125 8.71875 9.68166 8.71875 8.90625V8.4375H11.5312ZM5.15034 7.5L6.71283 2.8125H8.63414L7.85287 7.5H5.15034ZM7.78125 8.4375V8.90625C7.78125 9.68166 7.15041 10.3125 6.375 10.3125C5.59959 10.3125 4.96875 9.68166 4.96875 8.90625V8.4375H7.78125ZM3.83963 2.8125H5.72461L4.16212 7.5H1.2615L3.83963 2.8125ZM0.9375 8.90625V8.4375H4.03125V8.90625C4.03125 9.64223 3.29395 10.3125 2.48438 10.3125C2.28028 10.3125 2.06878 10.2682 1.87191 10.184C1.31302 9.94627 0.9375 9.43275 0.9375 8.90625ZM9.65625 23.0625H4.96875V19.0312H9.65625V23.0625ZM9.65625 18.0938H4.96875V14.0625H9.65625V18.0938ZM21.8438 23.0625H10.5938V13.5938C10.5938 13.3349 10.3838 13.125 10.125 13.125H4.5C4.24116 13.125 4.03125 13.3349 4.03125 13.5938V23.0625H2.15625V11.2271C2.26491 11.2418 2.37436 11.25 2.48438 11.25C3.1013 11.25 3.72492 11.0056 4.19522 10.5794C4.29923 10.4852 4.39289 10.3844 4.47694 10.2788C4.90322 10.8667 5.595 11.25 6.375 11.25C7.14089 11.25 7.82203 10.8807 8.25 10.3109C8.67797 10.8807 9.35911 11.25 10.125 11.25C10.8909 11.25 11.572 10.8807 12 10.3109C12.428 10.8807 13.1091 11.25 13.875 11.25C14.6409 11.25 15.322 10.8807 15.75 10.3109C16.178 10.8807 16.8591 11.25 17.625 11.25C18.405 11.25 19.0968 10.8667 19.5231 10.2788C19.6071 10.3844 19.7008 10.4851 19.8048 10.5794C20.2751 11.0056 20.8987 11.25 21.5156 11.25C21.6254 11.25 21.7349 11.2421 21.8438 11.2273V23.0625ZM23.0625 8.90625C23.0625 9.44756 22.673 9.96698 22.0934 10.1988C21.9038 10.2743 21.7095 10.3125 21.5156 10.3125C20.706 10.3125 19.9688 9.64223 19.9688 8.90625V8.4375H23.0625V8.90625Z" fill="#CAD6E2"/>
<path d="M20.4375 18.9688H19.9688V14.4688C19.9688 14.2099 19.7588 14 19.5 14H13.875C13.6162 14 13.4062 14.2099 13.4062 14.4688V18.9688H12.9375C12.6787 18.9688 12.4688 19.1787 12.4688 19.4375C12.4688 19.6963 12.6787 19.9062 12.9375 19.9062H20.4375C20.6963 19.9062 20.9062 19.6963 20.9062 19.4375C20.9062 19.1787 20.6963 18.9688 20.4375 18.9688ZM19.0312 18.9688H14.3438V14.9375H19.0312V18.9688Z" fill="#CAD6E2"/>
</svg>
