<svg width="24" height="24" viewBox="0 0 24 24" fill="none" xmlns="http://www.w3.org/2000/svg">
<path d="M19.1137 15.4591L15.3601 14.7863V13.8298C16.7608 13.0145 17.6881 11.7066 17.7501 10.222C18.9928 9.16445 19.6802 7.78951 19.6802 6.32628V4.64518C19.6802 3.66468 18.7715 2.85217 17.5974 2.72633C16.5908 1.06258 14.4975 0 12.1844 0H11.3766C9.81515 0 8.27671 0.425798 7.04413 1.19887C5.31266 2.28465 4.32001 3.92207 4.32001 5.69068V6.3267C4.32001 7.78951 5.00741 9.16487 6.25011 10.2224C6.31249 11.707 7.23939 13.015 8.64002 13.8302V14.7867L4.88645 15.4591C2.00932 15.9747 0 17.9942 0 20.3713V24H10.0382H13.9618H24V20.3713C24.0001 17.9942 21.9908 15.9747 19.1137 15.4591ZM15.781 15.6545L15.0485 18.3123L12.7848 17.0086L15.0063 15.5155L15.781 15.6545ZM12 16.5282L9.60002 14.9152V14.2819C10.3316 14.5536 11.1428 14.7096 12 14.7096C12.8573 14.7096 13.6685 14.5536 14.4001 14.2819V14.9152L12 16.5282ZM6.24 6.58067V8.96636C5.6174 8.1852 5.28 7.27745 5.28 6.32635V5.69068C5.28 4.1628 6.13779 2.74835 7.63346 1.81008C8.69808 1.14194 10.0277 0.774185 11.3765 0.774185H12.1843C14.2128 0.774185 16.0397 1.74576 16.8389 3.24926L16.9637 3.48387H17.28C18.074 3.48387 18.7201 4.00491 18.7201 4.64518V6.32635C18.7201 7.27745 18.3826 8.1852 17.7601 8.96636V5.80649H17.0905C16.1675 5.80649 15.3112 5.43678 14.7994 4.81749L14.6569 4.64525H13.6479L13.5082 4.83296C12.7065 5.911 11.2396 6.58067 9.68115 6.58067H6.24ZM7.20008 10.0645V7.35479H9.68123C11.4746 7.35479 13.168 6.62513 14.1702 5.4356C14.812 6.09558 15.7634 6.50668 16.8002 6.57175V10.0645C16.8002 12.199 14.6469 13.9355 12.0001 13.9355C9.35334 13.9355 7.20008 12.199 7.20008 10.0645ZM8.99331 15.516L11.2148 17.009L8.95107 18.3127L8.21856 15.655L8.99331 15.516ZM10.1184 23.2257H5.76005V21.6774H4.80005V23.2257H0.959993V20.3713C0.959993 18.3603 2.66018 16.6509 5.09424 16.215L7.28164 15.8229L8.32898 19.623L9.98839 18.6669L10.5432 19.1144L10.1184 23.2257ZM12.9183 23.2257H11.0818L11.5369 18.821L10.7799 18.2105L12 17.508L13.2202 18.2109L12.4632 18.8214L12.9183 23.2257ZM23.0401 23.2257H19.2001V21.6774H18.2401V23.2257H13.8817L13.4568 19.1144L14.0117 18.6669L15.6711 19.623L16.7184 15.8229L18.9058 16.215C21.3399 16.6509 23.0401 18.3603 23.0401 20.3713V23.2257Z" fill="#CAD6E2"/>
</svg>
