<svg width="24" height="24" viewBox="0 0 24 24" fill="none" xmlns="http://www.w3.org/2000/svg">
<path d="M4.22984 18.4841L2.35326 17.6349C2.14797 17.5419 1.90143 17.6227 1.80236 17.815C1.70329 18.0073 1.78932 18.2386 1.9945 18.3314L3.87108 19.1806C3.92889 19.2068 3.99001 19.2192 4.05013 19.2192C4.20349 19.2192 4.3508 19.1386 4.42193 19.0005C4.52105 18.8081 4.43502 18.577 4.22984 18.4841Z" fill="#CAD6E2"/>
<path d="M23.788 5.29553L12.1631 0.0349453C12.06 -0.0116484 11.94 -0.0116484 11.837 0.0349453L0.211978 5.29553C0.082361 5.35417 0 5.47722 0 5.61213V18.3878C0 18.5228 0.082361 18.6458 0.211978 18.7044L11.8369 23.965C11.8884 23.9883 11.9442 24 12 24C12.0558 24 12.1115 23.9883 12.1631 23.965L23.788 18.7044C23.9176 18.6458 24 18.5228 24 18.3878V5.61217C24 5.47717 23.9176 5.35422 23.788 5.29553ZM12 0.74196L22.7623 5.61213L19.6425 7.02391C19.6228 7.0098 19.6019 6.99677 19.579 6.98641L8.88984 2.14938L12 0.74196ZM8.04282 2.54688L18.7895 7.40997L16.5884 8.40602L5.84623 3.5449L8.04282 2.54688ZM19.0409 8.07691V11.7587L16.985 12.6891V9.00728L19.0409 8.07691ZM23.2499 18.1673L12.3751 23.0883V11.0934L14.969 9.91951C15.1556 9.83509 15.2338 9.62495 15.1437 9.45006C15.0537 9.27526 14.8295 9.20186 14.6429 9.28633L12 10.4823L10.9601 10.0117C10.7735 9.9272 10.5493 10.0006 10.4592 10.1755C10.3692 10.3503 10.4474 10.5605 10.6339 10.6449L11.625 11.0934V23.0883L0.7501 18.1672V6.17224L9.0312 9.91965C9.08376 9.94347 9.13932 9.95472 9.19398 9.95472C9.33339 9.95472 9.46731 9.8815 9.53197 9.75592C9.62203 9.58108 9.54382 9.37089 9.3573 9.28647L1.23772 5.61213L4.96346 3.92613L16.2297 9.02439C16.2313 9.02655 16.2332 9.02847 16.2349 9.03058V13.2493C16.2349 13.3703 16.3012 13.4827 16.4105 13.5471C16.4712 13.5828 16.5405 13.6008 16.61 13.6008C16.6656 13.6008 16.7213 13.5893 16.773 13.5659L19.579 12.2961C19.7086 12.2374 19.791 12.1144 19.791 11.9795V7.73753L23.2499 6.17228V18.1673V18.1673Z" fill="#CAD6E2"/>
<path d="M5.95721 17.4305L2.35616 15.8009C2.15092 15.708 1.90432 15.7887 1.80526 15.981C1.70624 16.1734 1.79228 16.4046 1.99745 16.4974L5.59851 18.127C5.65632 18.1532 5.71743 18.1656 5.77756 18.1656C5.93092 18.1656 6.07823 18.0851 6.14935 17.9469C6.24842 17.7545 6.16239 17.5233 5.95721 17.4305Z" fill="#CAD6E2"/>
</svg>
