<svg width="24" height="24" viewBox="0 0 24 24" fill="none" xmlns="http://www.w3.org/2000/svg">
<path d="M2.21714 21.5512C2.40807 21.6512 6.95182 24 12 24C17.4692 24 21.6235 21.6434 21.7977 21.5431C21.8594 21.5075 21.9105 21.4573 21.9459 21.3971C21.9814 21.337 22 21.2691 22 21.2001C22 17.9705 20.9684 15.0152 19.0953 12.8782C17.7849 11.3832 16.1409 10.3643 14.3276 9.89517C15.4376 9.38808 16.3349 8.53365 16.8721 7.47224C17.4093 6.41083 17.5544 5.20558 17.2836 4.05451C17.0129 2.90344 16.3423 1.87502 15.3821 1.1382C14.4219 0.401382 13.2293 0 12 0C10.7707 0 9.57805 0.401382 8.61787 1.1382C7.65769 1.87502 6.98713 2.90344 6.71637 4.05451C6.4456 5.20558 6.59074 6.41083 7.12793 7.47224C7.66513 8.53365 8.56242 9.38808 9.6724 9.89517C7.85911 10.3643 6.21505 11.3834 4.90474 12.8782C3.03161 15.0152 2 17.9705 2 21.2001C2 21.2719 2.02016 21.3425 2.05837 21.4042C2.09658 21.466 2.15142 21.5168 2.21714 21.5512V21.5512ZM7.41667 5.20049C7.41667 4.33027 7.68547 3.4796 8.1891 2.75604C8.69272 2.03249 9.40854 1.46854 10.246 1.13552C11.0835 0.802508 12.0051 0.715375 12.8942 0.885146C13.7832 1.05492 14.5999 1.47397 15.2409 2.0893C15.8819 2.70464 16.3184 3.48862 16.4953 4.34211C16.6721 5.19561 16.5813 6.08028 16.2344 6.88425C15.8875 7.68823 15.3001 8.37539 14.5464 8.85886C13.7926 9.34233 12.9065 9.60037 12 9.60037C10.7848 9.59905 9.61986 9.13507 8.76062 8.31022C7.90137 7.48536 7.41805 6.36701 7.41667 5.20049V5.20049ZM5.54234 13.3932C7.23437 11.4632 9.5275 10.4004 12 10.4004C14.4725 10.4004 16.7656 11.4632 18.4577 13.3932C20.1598 15.3351 21.1168 18.0171 21.1648 20.9667C20.2732 21.4301 16.5681 23.2 12 23.2C7.77552 23.2 3.79687 21.4196 2.83542 20.9573C2.88542 18.0113 3.84203 15.333 5.54234 13.3932Z" fill="#CAD6E2"/>
</svg>
