<svg width="24" height="24" viewBox="0 0 24 24" fill="none" xmlns="http://www.w3.org/2000/svg">
<path d="M9.5 24C8.832 24 8.204 23.74 7.732 23.268L0.732 16.268C0.26 15.796 0 15.168 0 14.5C0 13.858 0.243 13.248 0.684 12.782L11.96 1.091C12.615 0.399 13.542 0 14.5 0H21.5C22.878 0 24 1.122 24 2.5V9.5C24 10.457 23.602 11.383 22.907 12.041L11.222 23.313C10.752 23.757 10.142 24 9.5 24V24ZM14.5 1C13.806 1 13.161 1.278 12.684 1.782L1.407 13.473C1.146 13.749 1 14.115 1 14.5C1 14.901 1.156 15.277 1.439 15.56L8.439 22.56C8.994 23.116 9.96 23.129 10.53 22.589L22.214 11.319C22.215 11.318 22.216 11.317 22.217 11.316C22.722 10.839 23 10.194 23 9.5V2.5C23 1.673 22.327 1 21.5 1H14.5Z" fill="#CAD6E2"/>
<path d="M19 7C17.897 7 17 6.103 17 5C17 3.897 17.897 3 19 3C20.103 3 21 3.897 21 5C21 6.103 20.103 7 19 7ZM19 4C18.449 4 18 4.449 18 5C18 5.551 18.449 6 19 6C19.551 6 20 5.551 20 5C20 4.449 19.551 4 19 4Z" fill="#CAD6E2"/>
<path d="M11.8639 16.1709C11.7359 16.1709 11.6079 16.1219 11.5099 16.0249L8.68191 13.1969C8.09691 12.6119 8.09691 11.6599 8.68191 11.0749L10.0959 9.6609C10.2909 9.4659 10.6079 9.4659 10.8029 9.6609C10.9979 9.8559 10.9979 10.1729 10.8029 10.3679L9.38891 11.7819C9.19391 11.9769 9.19391 12.2939 9.38891 12.4899L12.2169 15.3179C12.4119 15.5129 12.4119 15.8299 12.2169 16.0249C12.1199 16.1229 11.9919 16.1709 11.8639 16.1709V16.1709Z" fill="#CAD6E2"/>
<path d="M10.45 14.757C10.322 14.757 10.194 14.708 10.096 14.611C9.90096 14.416 9.90096 14.099 10.096 13.904L12.218 11.783C12.413 11.588 12.73 11.588 12.925 11.783C13.12 11.978 13.12 12.295 12.925 12.49L10.803 14.611C10.706 14.708 10.578 14.757 10.45 14.757V14.757Z" fill="#CAD6E2"/>
<path d="M15.606 12.429C15.478 12.429 15.35 12.38 15.252 12.283L12.424 9.45495C12.141 9.17195 11.985 8.79495 11.985 8.39395C11.985 7.99295 12.141 7.61596 12.424 7.33296L13.838 5.91896C14.033 5.72396 14.35 5.72396 14.545 5.91896C14.74 6.11396 14.74 6.43095 14.545 6.62595L13.132 8.03995C13.037 8.13495 12.986 8.25995 12.986 8.39395C12.986 8.52695 13.038 8.65296 13.132 8.74796L15.96 11.576C16.155 11.771 16.155 12.088 15.96 12.283C15.862 12.38 15.734 12.429 15.606 12.429V12.429Z" fill="#CAD6E2"/>
<path d="M14.192 11.015C14.064 11.015 13.936 10.966 13.838 10.869C13.643 10.674 13.643 10.357 13.838 10.162L15.96 8.04005C16.155 7.84505 16.472 7.84505 16.667 8.04005C16.862 8.23505 16.862 8.55205 16.667 8.74705L14.546 10.868C14.448 10.966 14.32 11.015 14.192 11.015V11.015Z" fill="#CAD6E2"/>
<path d="M8.12099 19.4999C7.73699 19.4999 7.35299 19.3539 7.05999 19.0609L4.93899 16.9399C4.35399 16.3549 4.35399 15.4029 4.93899 14.8179L5.64599 14.1109C6.21299 13.5439 7.20199 13.5449 7.76799 14.1109L9.88899 16.2329C10.172 16.5159 10.328 16.8929 10.328 17.2939C10.328 17.6939 10.172 18.0709 9.88899 18.3549L9.18199 19.0619C8.88999 19.3529 8.50499 19.4999 8.12099 19.4999V19.4999ZM6.70699 14.6709C6.57399 14.6709 6.44799 14.7229 6.35299 14.8169L5.64599 15.5239C5.45099 15.7189 5.45099 16.0359 5.64599 16.2319L7.76699 18.3529C7.96299 18.5489 8.27999 18.5479 8.47499 18.3529L9.18199 17.6459C9.27599 17.5509 9.32799 17.4259 9.32799 17.2919C9.32799 17.1579 9.27599 17.0329 9.18199 16.9389L7.05999 14.8169C6.96599 14.7229 6.84099 14.6709 6.70699 14.6709V14.6709Z" fill="#CAD6E2"/>
</svg>
