<svg width="20" height="24" viewBox="0 0 20 24" fill="none" xmlns="http://www.w3.org/2000/svg">
<path d="M19.079 4.4C19.08 4.29445 19.0361 4.1928 18.957 4.1172L14.6604 0.1172C14.5796 0.043 14.4702 0.0021 14.3567 0.0036V0H1.46717C0.755297 0 0.178223 0.53725 0.178223 1.2V22.8C0.178223 23.4628 0.755297 24 1.46717 24H17.7939C18.5058 24 19.0828 23.4628 19.0828 22.8V4.4H19.079ZM14.7863 1.3656L17.616 4H15.216C14.9787 4 14.7863 3.8209 14.7863 3.6V1.3656ZM18.2235 22.8C18.2235 23.0209 18.0312 23.2 17.7939 23.2H1.46717C1.2299 23.2 1.03752 23.0209 1.03752 22.8V1.2C1.03752 0.9791 1.2299 0.8 1.46717 0.8H13.927V3.6C13.927 4.26275 14.5041 4.8 15.216 4.8H18.2235V22.8Z" fill="#CAD6E2"/>
<path d="M4.4745 10.8C3.76262 10.8 3.18555 11.3373 3.18555 12C3.18555 12.6628 3.76262 13.2 4.4745 13.2C5.18637 13.2 5.76345 12.6628 5.76345 12C5.76345 11.3373 5.18637 10.8 4.4745 10.8ZM4.4745 12.4C4.23722 12.4 4.04485 12.2209 4.04485 12C4.04485 11.7791 4.23722 11.6 4.4745 11.6C4.71177 11.6 4.90415 11.7791 4.90415 12C4.90415 12.2209 4.71177 12.4 4.4745 12.4Z" fill="#CAD6E2"/>
<path d="M16.0754 11.6H7.48242V12.4H16.0754V11.6Z" fill="#CAD6E2"/>
<path d="M4.4745 6.80005C3.76262 6.80005 3.18555 7.3373 3.18555 8.00005C3.18555 8.66279 3.76262 9.20004 4.4745 9.20004C5.18637 9.20004 5.76345 8.66279 5.76345 8.00005C5.76345 7.3373 5.18637 6.80005 4.4745 6.80005ZM4.4745 8.40004C4.23722 8.40004 4.04485 8.22095 4.04485 8.00005C4.04485 7.77915 4.23722 7.60005 4.4745 7.60005C4.71177 7.60005 4.90415 7.77915 4.90415 8.00005C4.90415 8.22095 4.71177 8.40004 4.4745 8.40004Z" fill="#CAD6E2"/>
<path d="M16.0754 7.59998H7.48242V8.39998H16.0754V7.59998Z" fill="#CAD6E2"/>
<path d="M4.4745 14.8C3.76262 14.8 3.18555 15.3373 3.18555 16C3.18555 16.6628 3.76262 17.2 4.4745 17.2C5.18637 17.2 5.76345 16.6628 5.76345 16C5.76345 15.3373 5.18637 14.8 4.4745 14.8ZM4.4745 16.4C4.23722 16.4 4.04485 16.2209 4.04485 16C4.04485 15.7791 4.23722 15.6 4.4745 15.6C4.71177 15.6 4.90415 15.7791 4.90415 16C4.90415 16.2209 4.71177 16.4 4.4745 16.4Z" fill="#CAD6E2"/>
<path d="M16.0754 15.6H7.48242V16.4H16.0754V15.6Z" fill="#CAD6E2"/>
<path d="M4.4745 18.8C3.76262 18.8 3.18555 19.3373 3.18555 20C3.18555 20.6628 3.76262 21.2 4.4745 21.2C5.18637 21.2 5.76345 20.6628 5.76345 20C5.76345 19.3373 5.18637 18.8 4.4745 18.8ZM4.4745 20.4C4.23722 20.4 4.04485 20.2209 4.04485 20C4.04485 19.7791 4.23722 19.6 4.4745 19.6C4.71177 19.6 4.90415 19.7791 4.90415 20C4.90415 20.2209 4.71177 20.4 4.4745 20.4Z" fill="#CAD6E2"/>
<path d="M16.0754 19.6H7.48242V20.4H16.0754V19.6Z" fill="#CAD6E2"/>
</svg>
