<svg width="24" height="16" viewBox="0 0 24 16" fill="none" xmlns="http://www.w3.org/2000/svg">
<path d="M23.6719 4.1674H22.0781V2.57365C22.0781 2.53056 22.0697 2.48788 22.0532 2.44806C22.0367 2.40823 22.0125 2.37205 21.9821 2.34158C21.9516 2.3111 21.9154 2.28694 21.8756 2.27045C21.8358 2.25397 21.7931 2.2455 21.75 2.24553H20.1562V0.649902C20.1563 0.606805 20.1478 0.564126 20.1313 0.524305C20.1148 0.484484 20.0907 0.448302 20.0602 0.417828C20.0297 0.387354 19.9935 0.363186 19.9537 0.346704C19.9139 0.330223 19.8712 0.321753 19.8281 0.321777H0.328125C0.285028 0.321753 0.242349 0.330223 0.202528 0.346704C0.162707 0.363186 0.126525 0.387354 0.0960507 0.417828C0.0655765 0.448302 0.041408 0.484484 0.0249269 0.524305C0.00844579 0.564126 -2.45943e-05 0.606805 5.36377e-08 0.649902V11.5043C5.36377e-08 11.5913 0.0345703 11.6748 0.0961056 11.7363C0.157641 11.7978 0.241101 11.8324 0.328125 11.8324H1.92188V13.4262C1.92178 13.4693 1.93019 13.512 1.94664 13.5519C1.96309 13.5918 1.98724 13.6281 2.01773 13.6586C2.04821 13.6891 2.08441 13.7133 2.12427 13.7299C2.16413 13.7464 2.20686 13.7549 2.25 13.7548H3.84375V15.3486C3.84373 15.3917 3.8522 15.4344 3.86868 15.4742C3.88516 15.514 3.90933 15.5502 3.9398 15.5807C3.97027 15.6111 4.00646 15.6353 4.04628 15.6518C4.0861 15.6683 4.12878 15.6767 4.17188 15.6767H23.6719C23.7587 15.6768 23.842 15.6424 23.9035 15.5811C23.965 15.5199 23.9997 15.4367 24 15.3499V4.49553C24 4.4085 23.9654 4.32504 23.9039 4.26351C23.8424 4.20197 23.7589 4.1674 23.6719 4.1674V4.1674ZM0.65625 0.97859H19.4985V11.1762H0.65625V0.97859ZM2.57887 11.8324H19.8266C19.9136 11.8324 19.9971 11.7978 20.0586 11.7363C20.1202 11.6748 20.1547 11.5913 20.1547 11.5043V2.90121H21.4211V13.0986H2.57887V11.8324ZM23.3438 15.0212H4.5015V13.7548H21.75C21.7931 13.7549 21.8358 13.7464 21.8756 13.7299C21.9154 13.7134 21.9516 13.6893 21.9821 13.6588C22.0125 13.6283 22.0367 13.5921 22.0532 13.5523C22.0697 13.5125 22.0781 13.4698 22.0781 13.4267V4.82365H23.3438V15.0212Z" fill="#CAD6E2"/>
<path d="M3.16256 10.0043C3.16254 10.0474 3.17101 10.0901 3.18749 10.1299C3.20397 10.1697 3.22814 10.2059 3.25861 10.2364C3.28909 10.2668 3.32527 10.291 3.36509 10.3075C3.40491 10.324 3.44759 10.3324 3.49069 10.3324H16.6641C16.7072 10.3324 16.7498 10.324 16.7897 10.3075C16.8295 10.291 16.8657 10.2668 16.8961 10.2364C16.9266 10.2059 16.9508 10.1697 16.9673 10.1299C16.9837 10.0901 16.9922 10.0474 16.9922 10.0043C16.9926 9.65049 17.1333 9.3113 17.3835 9.06113C17.6336 8.81096 17.9728 8.67024 18.3266 8.66984C18.3697 8.66987 18.4124 8.6614 18.4522 8.64492C18.492 8.62844 18.5282 8.60427 18.5587 8.57379C18.5892 8.54332 18.6133 8.50714 18.6298 8.46732C18.6463 8.4275 18.6548 8.38482 18.6547 8.34172V3.81303C18.6548 3.76993 18.6463 3.72725 18.6298 3.68743C18.6133 3.64761 18.5892 3.61143 18.5587 3.58095C18.5282 3.55048 18.492 3.52631 18.4522 3.50983C18.4124 3.49335 18.3697 3.48488 18.3266 3.4849C17.9727 3.48456 17.6334 3.34378 17.3832 3.09347C17.133 2.84317 16.9924 2.50381 16.9922 2.1499C16.9922 2.10681 16.9837 2.06413 16.9673 2.02431C16.9508 1.98448 16.9266 1.9483 16.8961 1.91783C16.8657 1.88735 16.8295 1.86319 16.7897 1.8467C16.7498 1.83022 16.7072 1.82175 16.6641 1.82178H3.49069C3.44759 1.82175 3.40491 1.83022 3.36509 1.8467C3.32527 1.86319 3.28909 1.88735 3.25861 1.91783C3.22814 1.9483 3.20397 1.98448 3.18749 2.02431C3.17101 2.06413 3.16254 2.10681 3.16256 2.1499C3.16236 2.50381 3.02173 2.84317 2.77153 3.09347C2.52133 3.34378 2.18203 3.48456 1.82813 3.4849C1.78503 3.48488 1.74235 3.49335 1.70253 3.50983C1.66271 3.52631 1.62652 3.55048 1.59605 3.58095C1.56558 3.61143 1.54141 3.64761 1.52493 3.68743C1.50845 3.72725 1.49998 3.76993 1.5 3.81303V8.34172C1.49998 8.38482 1.50845 8.4275 1.52493 8.46732C1.54141 8.50714 1.56558 8.54332 1.59605 8.57379C1.62652 8.60427 1.66271 8.62844 1.70253 8.64492C1.74235 8.6614 1.78503 8.66987 1.82813 8.66984C2.18192 8.67024 2.52111 8.81096 2.77128 9.06113C3.02145 9.3113 3.16217 9.65049 3.16256 10.0043ZM2.15625 4.11397C2.56495 4.04498 2.94202 3.85046 3.23512 3.55739C3.52821 3.26433 3.72278 2.88728 3.79181 2.47859H16.3629C16.432 2.88728 16.6265 3.26433 16.9196 3.55739C17.2127 3.85046 17.5898 4.04498 17.9985 4.11397V8.04078C17.5898 8.10977 17.2127 8.30429 16.9196 8.59735C16.6265 8.89042 16.432 9.26747 16.3629 9.67616H3.79181C3.72278 9.26747 3.52821 8.89042 3.23512 8.59735C2.94202 8.30429 2.56495 8.10977 2.15625 8.04078V4.11397Z" fill="#CAD6E2"/>
<path d="M10.6896 7.23791H8.71484C8.62782 7.23791 8.54436 7.27248 8.48282 7.33401C8.42129 7.39555 8.38672 7.47901 8.38672 7.56603C8.38672 7.65306 8.42129 7.73652 8.48282 7.79805C8.54436 7.85959 8.62782 7.89416 8.71484 7.89416H9.74984V8.50428C9.74984 8.59131 9.78441 8.67477 9.84595 8.7363C9.90748 8.79784 9.99094 8.83241 10.078 8.83241C10.165 8.83241 10.2485 8.79784 10.31 8.7363C10.3715 8.67477 10.4061 8.59131 10.4061 8.50428V7.89416H10.6903C10.9762 7.89386 11.2502 7.78018 11.4524 7.57805C11.6545 7.37593 11.7682 7.10188 11.7685 6.81603V6.07728C11.7684 6.03419 11.7598 5.99154 11.7432 5.95177C11.7266 5.912 11.7024 5.87588 11.6718 5.84548C11.6413 5.81508 11.6051 5.79099 11.5652 5.7746C11.5254 5.7582 11.4827 5.74981 11.4396 5.74991H9.04297V5.33872C9.04312 5.22687 9.08761 5.11966 9.1667 5.04057C9.24578 4.96149 9.353 4.91699 9.46484 4.91684H11.4396C11.5266 4.91684 11.6101 4.88227 11.6716 4.82074C11.7331 4.7592 11.7677 4.67574 11.7677 4.58872C11.7677 4.50169 11.7331 4.41823 11.6716 4.3567C11.6101 4.29516 11.5266 4.26059 11.4396 4.26059H10.4061V3.6499C10.4061 3.56288 10.3715 3.47942 10.31 3.41788C10.2485 3.35635 10.165 3.32178 10.078 3.32178C9.99094 3.32178 9.90748 3.35635 9.84595 3.41788C9.78441 3.47942 9.74984 3.56288 9.74984 3.6499V4.26003H9.46484C9.17901 4.26038 8.90499 4.37408 8.70288 4.57619C8.50077 4.7783 8.38707 5.05232 8.38672 5.33815V6.07672C8.38672 6.16374 8.42129 6.2472 8.48282 6.30874C8.54436 6.37027 8.62782 6.40484 8.71484 6.40484H11.1115V6.81547C11.1115 6.92741 11.067 7.03477 10.9879 7.11398C10.9088 7.19319 10.8015 7.23776 10.6896 7.23791V7.23791Z" fill="#CAD6E2"/>
<path d="M14.1084 7.07766C14.3063 7.07766 14.4997 7.01898 14.6643 6.90904C14.8288 6.79911 14.957 6.64285 15.0328 6.46003C15.1085 6.27722 15.1283 6.07605 15.0897 5.88197C15.0511 5.68789 14.9558 5.50962 14.8159 5.3697C14.676 5.22978 14.4977 5.13449 14.3036 5.09589C14.1095 5.05728 13.9084 5.07709 13.7255 5.15282C13.5427 5.22854 13.3865 5.35678 13.2765 5.52131C13.1666 5.68584 13.1079 5.87928 13.1079 6.07716C13.1082 6.34242 13.2137 6.59672 13.4013 6.78429C13.5888 6.97185 13.8432 7.07736 14.1084 7.07766V7.07766ZM14.1084 5.73291C14.1765 5.73291 14.2431 5.7531 14.2997 5.79093C14.3563 5.82875 14.4004 5.88252 14.4265 5.94542C14.4525 6.00832 14.4593 6.07754 14.446 6.14432C14.4328 6.2111 14.4 6.27244 14.3518 6.32058C14.3037 6.36872 14.2424 6.40151 14.1756 6.41479C14.1088 6.42808 14.0396 6.42126 13.9767 6.3952C13.9138 6.36915 13.86 6.32502 13.8222 6.26841C13.7844 6.2118 13.7642 6.14524 13.7642 6.07716C13.7642 5.98587 13.8005 5.89834 13.865 5.83379C13.9296 5.76924 14.0171 5.73296 14.1084 5.73291V5.73291Z" fill="#CAD6E2"/>
<path d="M6.0464 7.07766C6.24428 7.07766 6.43771 7.01898 6.60225 6.90904C6.76678 6.79911 6.89501 6.64285 6.97074 6.46003C7.04646 6.27722 7.06628 6.07605 7.02767 5.88197C6.98907 5.68789 6.89378 5.50962 6.75386 5.3697C6.61393 5.22978 6.43566 5.13449 6.24159 5.09589C6.04751 5.05728 5.84634 5.07709 5.66352 5.15282C5.48071 5.22854 5.32445 5.35678 5.21451 5.52131C5.10458 5.68584 5.0459 5.87928 5.0459 6.07716C5.0462 6.34242 5.1517 6.59672 5.33927 6.78429C5.52683 6.97185 5.78114 7.07736 6.0464 7.07766V7.07766ZM6.0464 5.73291C6.11448 5.73291 6.18104 5.7531 6.23765 5.79093C6.29426 5.82875 6.33839 5.88252 6.36444 5.94542C6.3905 6.00832 6.39732 6.07754 6.38403 6.14432C6.37075 6.2111 6.33796 6.27244 6.28982 6.32058C6.24167 6.36872 6.18034 6.40151 6.11356 6.41479C6.04678 6.42808 5.97756 6.42126 5.91466 6.3952C5.85176 6.36915 5.79799 6.32502 5.76016 6.26841C5.72234 6.2118 5.70215 6.14524 5.70215 6.07716C5.7022 5.98587 5.73848 5.89834 5.80303 5.83379C5.86758 5.76924 5.95511 5.73296 6.0464 5.73291V5.73291Z" fill="#CAD6E2"/>
</svg>
