<svg width="24" height="24" viewBox="0 0 24 24" fill="none" xmlns="http://www.w3.org/2000/svg">
<g clip-path="url(#clip0)">
<path d="M15.0059 5.96362C15.2 5.96362 15.3574 5.80615 15.3574 5.61206V5.23633C15.3574 5.04224 15.2 4.88477 15.0059 4.88477C14.8118 4.88477 14.6543 5.04224 14.6543 5.23633V5.61206C14.6543 5.80615 14.8118 5.96362 15.0059 5.96362Z" fill="white"/>
<path d="M18.7637 5.96362C18.9579 5.96362 19.1152 5.80615 19.1152 5.61206V5.23633C19.1152 5.04224 18.9579 4.88477 18.7637 4.88477C18.5696 4.88477 18.4121 5.04224 18.4121 5.23633V5.61206C18.4121 5.80615 18.5696 5.96362 18.7637 5.96362Z" fill="white"/>
<path d="M15.5577 7.77308C15.949 8.0644 16.4078 8.2184 16.8846 8.2184C17.3615 8.2184 17.8203 8.0644 18.2116 7.77308C18.3673 7.65699 18.3995 7.4369 18.2836 7.28107C18.1675 7.12525 17.9474 7.09302 17.7916 7.20911C17.5226 7.40943 17.2089 7.51527 16.8846 7.51527C16.5602 7.51527 16.2467 7.40925 15.9775 7.20911C15.8219 7.09302 15.6016 7.12525 15.4857 7.28107C15.3696 7.43671 15.4019 7.65699 15.5577 7.77308Z" fill="white"/>
<path d="M22.9889 12.5369L20.4922 11.7047L20.0229 11.0006C19.9127 10.8353 19.7443 10.7245 19.5487 10.6886C19.5295 10.6851 19.5103 10.6829 19.4908 10.6811V9.54492C19.5656 9.48395 19.639 9.42114 19.7098 9.35468C20.5259 8.58948 20.994 7.52216 20.994 6.42627V6.17175C20.994 6.03589 20.9815 5.9024 20.9581 5.7724L21.4969 4.96399C21.6595 4.72028 21.7454 4.43646 21.7454 4.14368V3.73334C21.7454 1.67468 20.0706 0 18.0121 0H15.3818C14.8279 0 14.3445 0.306335 14.0911 0.75824C12.9373 0.842285 12.0242 1.80707 12.0242 2.98187V4.14368C12.0242 4.34363 12.0652 4.53918 12.1423 4.72083C11.365 4.10999 10.3922 3.75751 9.36969 3.75751C6.89667 3.75751 4.8847 5.76947 4.8847 8.24249V10.1453H2.60614C1.79059 10.1453 1.12738 10.8087 1.12738 11.6243V12.7515C1.12738 13.4143 1.41833 14.0101 1.87885 14.419V14.9079C1.87885 15.0738 1.77448 15.2241 1.61938 15.2823L0.715759 15.6213C0.287659 15.7819 0 16.197 0 16.6542V18.3878C0 18.5821 0.157471 18.7394 0.351562 18.7394C0.545654 18.7394 0.703125 18.5821 0.703125 18.3878V16.6542C0.703125 16.4883 0.807495 16.3378 0.962585 16.2795L1.73291 15.9908L2.84601 17.0923C2.98718 17.2321 3.1723 17.3016 3.3576 17.3016C3.54291 17.3016 3.72821 17.2319 3.8692 17.0923L4.13342 16.8311V18.388C4.13342 18.5821 4.29071 18.7396 4.48499 18.7396C4.67908 18.7396 4.83655 18.5821 4.83655 18.388V16.1032C4.83655 15.8016 5.01324 15.5251 5.28717 15.3988L7.14862 14.5397L8.61676 15.9111C8.82788 16.1083 9.09888 16.2068 9.36969 16.2068C9.50555 16.2068 9.64142 16.1821 9.76978 16.1325V18.388C9.76978 18.5821 9.92706 18.7396 10.1213 18.7396C10.3154 18.7396 10.4729 18.5821 10.4729 18.388V13.9398C10.4729 13.6055 10.686 13.3098 11.0032 13.2039L13.3865 12.4094L14.8484 14.1636C14.9788 14.3201 15.1705 14.4153 15.3741 14.4245C15.3851 14.425 15.3959 14.4252 15.4069 14.4252C15.5989 14.4252 15.785 14.3485 15.9214 14.2123L16.5333 13.6003V18.3878C16.5333 18.5821 16.6906 18.7394 16.8849 18.7394C17.079 18.7394 17.2365 18.5821 17.2365 18.3878V13.6003L17.8482 14.2123C17.9925 14.3564 18.1915 14.4337 18.3955 14.4245C18.5991 14.4153 18.7908 14.3201 18.9214 14.1636L19.5972 13.3524C19.7216 13.2032 19.7014 12.9816 19.5524 12.8573C19.4031 12.733 19.1814 12.7531 19.0573 12.9022L18.3812 13.7135C18.3794 13.7157 18.3743 13.7216 18.3636 13.7221C18.353 13.7227 18.3475 13.7172 18.3455 13.715L17.4269 12.7965L19.4037 11.3844C19.4057 11.3829 19.4121 11.3785 19.4222 11.3804C19.4323 11.3822 19.4365 11.3886 19.4379 11.3906L19.9603 12.1743C20.0017 12.2468 20.0689 12.3047 20.1542 12.3333L22.7666 13.2039C23.0837 13.3098 23.2969 13.6055 23.2969 13.9398V18.388C23.2969 18.5821 23.4543 18.7396 23.6484 18.7396C23.8427 18.7396 24 18.5821 24 18.388V13.9398C24 13.3022 23.5937 12.7385 22.9889 12.5369V12.5369ZM12.7273 2.98187C12.7273 2.26044 13.2303 1.65472 13.9037 1.49579C13.9127 1.68201 14.0662 1.83032 14.2546 1.83032C14.4487 1.83032 14.6061 1.67303 14.6061 1.47876C14.6061 1.05103 14.954 0.703125 15.3818 0.703125H18.0121C19.6829 0.703125 21.0423 2.0625 21.0423 3.73334V4.14349C21.0423 4.29712 20.9973 4.44598 20.9121 4.57379L20.6461 4.97278C20.3317 4.47656 19.827 4.11053 19.225 3.9906C17.1127 3.56982 15.6215 2.34796 15.6066 2.33569C15.4574 2.21173 15.236 2.23187 15.1117 2.38092C14.9874 2.53015 15.0075 2.75189 15.1567 2.87622C15.2225 2.93097 16.7932 4.22314 19.0875 4.68018C19.7847 4.81897 20.2908 5.44629 20.2908 6.17175V6.42627C20.2908 7.32861 19.9037 8.20898 19.229 8.84161C18.5297 9.49713 17.6166 9.82397 16.6584 9.76227C14.8755 9.64728 13.4789 8.09711 13.4789 6.23346V4.95172C13.4789 4.74463 13.5595 4.5498 13.706 4.40332L14.5032 3.60608C14.6404 3.46893 14.6404 3.24628 14.5032 3.10895C14.3659 2.9718 14.1432 2.9718 14.0061 3.10895L13.2089 3.90619C13.0303 4.08453 12.9034 4.30078 12.8348 4.53662C12.7646 4.4176 12.7275 4.28265 12.7275 4.14349V2.98187H12.7273ZM14.2787 10.6811C14.2593 10.6829 14.2401 10.6851 14.2209 10.6888C14.081 10.7144 13.9554 10.7791 13.8547 10.8739V9.09631C13.9863 9.245 14.1279 9.38416 14.2787 9.51215V10.6811ZM5.58801 8.24249C5.58801 6.1571 7.28448 4.46063 9.36969 4.46063C10.8312 4.46063 12.173 5.31427 12.7943 6.63666C12.8381 7.112 12.9582 7.56555 13.1422 7.98358C13.1479 8.06946 13.1514 8.15625 13.1514 8.24231V11.7466L11.2242 12.3889V12.1668C12.1295 11.5646 12.7273 10.5359 12.7273 9.36969V8.85883C12.7273 8.34375 12.3755 7.90192 11.8718 7.78418C11.0376 7.58917 9.48907 7.1131 8.49097 6.11499C8.35364 5.97766 8.13116 5.97766 7.99384 6.11499C7.85651 6.25232 7.85651 6.47479 7.99384 6.61212C9.11536 7.73364 10.8047 8.25677 11.712 8.46881C11.8958 8.51184 12.0242 8.67206 12.0242 8.85883V9.36969C12.0242 10.8334 10.8333 12.0242 9.36969 12.0242C7.90594 12.0242 6.71521 10.8334 6.71521 9.36969V8.55377C6.71521 8.44684 6.75677 8.3465 6.8324 8.27087L7.36377 7.7395C7.5011 7.60217 7.5011 7.3797 7.36377 7.24237C7.22644 7.10504 7.00397 7.10504 6.86664 7.24237L6.33527 7.77374C6.12689 7.98212 6.01208 8.25916 6.01208 8.55377V9.36969C6.01208 10.5359 6.61011 11.5648 7.5152 12.1668V12.8086L5.58801 12.4581V8.24249ZM2.60614 10.8484H4.88489V11.2727H1.91547C2.04401 11.0213 2.30493 10.8484 2.60614 10.8484ZM1.83032 11.9758H4.88489V12.7515C4.88489 13.5936 4.19971 14.2787 3.3576 14.2787C2.5155 14.2787 1.83032 13.5938 1.83032 12.7515V11.9758ZM3.37463 16.5925C3.3653 16.6018 3.3501 16.6018 3.34058 16.5925L2.33679 15.5993C2.49152 15.407 2.58179 15.1641 2.58179 14.9079V14.8425C2.82367 14.9324 3.08496 14.9819 3.3576 14.9819C3.63025 14.9819 3.89154 14.9324 4.13324 14.8425V14.9079C4.13324 15.1036 4.18579 15.2932 4.2821 15.4598C4.22809 15.5711 4.18781 15.6894 4.16309 15.8123L3.37463 16.5925ZM4.99237 14.7603C4.93817 14.7854 4.88654 14.8141 4.83636 14.8451V14.419C5.19855 14.0975 5.45544 13.6602 5.54883 13.1656L7.47363 13.5156C7.4339 13.5967 7.36761 13.6641 7.28284 13.7032L4.99237 14.7603ZM9.76959 13.9398V15.2787L9.6427 15.3972C9.48962 15.5403 9.24976 15.5402 9.09668 15.3972L7.81018 14.1956C8.06378 13.9889 8.21832 13.6756 8.21832 13.3401V12.5239C8.57758 12.6555 8.96539 12.7273 9.36969 12.7273C9.77399 12.7273 10.1618 12.6555 10.5211 12.5239V12.6531C10.0629 12.9117 9.76959 13.3987 9.76959 13.9398ZM15.4241 13.715C15.4221 13.717 15.4166 13.7227 15.4059 13.7221C15.3953 13.7216 15.3904 13.7157 15.3884 13.7133L13.9411 11.9766L14.3317 11.3906C14.3331 11.3886 14.3375 11.3822 14.3474 11.3804C14.3577 11.3784 14.3639 11.3829 14.3659 11.3844L16.3427 12.7965L15.4241 13.715ZM16.8849 12.3195L14.9819 10.9601V9.99335C15.4744 10.2596 16.0261 10.426 16.613 10.4639C16.7054 10.47 16.7974 10.4729 16.8891 10.4729C17.56 10.4729 18.2064 10.313 18.7877 10.0096V10.9601L16.8849 12.3195Z" fill="#CAD6E2"/>
<path d="M7.8667 9.34546C8.06079 9.34546 8.21826 9.18799 8.21826 8.9939V8.61816C8.21826 8.42407 8.06079 8.2666 7.8667 8.2666C7.67242 8.2666 7.51514 8.42407 7.51514 8.61816V8.9939C7.51514 9.18799 7.67242 9.34546 7.8667 9.34546Z" fill="white"/>
<path d="M10.873 9.34546C11.0671 9.34546 11.2246 9.18799 11.2246 8.9939V8.61816C11.2246 8.42407 11.0671 8.2666 10.873 8.2666C10.6788 8.2666 10.5215 8.42407 10.5215 8.61816V8.9939C10.5215 9.18799 10.6788 9.34546 10.873 9.34546Z" fill="white"/>
<path d="M8.42508 10.7907C8.70468 10.9745 9.03134 11.0716 9.36972 11.0716C9.7081 11.0716 10.0348 10.9745 10.3144 10.7907C10.4766 10.6841 10.5216 10.4661 10.4151 10.3038C10.3083 10.1416 10.0904 10.0964 9.92819 10.2031C9.76358 10.3113 9.57059 10.3685 9.36972 10.3685C9.16904 10.3685 8.97586 10.3111 8.81125 10.2031C8.6492 10.0964 8.43112 10.1416 8.32437 10.3038C8.21781 10.4661 8.26285 10.6841 8.42508 10.7907Z" fill="white"/>
<path d="M2.60596 13.103H2.60962C2.80389 13.103 2.95935 12.9457 2.95935 12.7515C2.95935 12.5574 2.80005 12.3999 2.60596 12.3999C2.41168 12.3999 2.25439 12.5574 2.25439 12.7515C2.25439 12.9457 2.41168 13.103 2.60596 13.103Z" fill="white"/>
<path d="M4.10547 13.103H4.10913C4.30341 13.103 4.45886 12.9457 4.45886 12.7515C4.45886 12.5574 4.29956 12.3999 4.10547 12.3999C3.91119 12.3999 3.75391 12.5574 3.75391 12.7515C3.75391 12.9457 3.91119 13.103 4.10547 13.103Z" fill="white"/>
</g>
<defs>
<clipPath id="clip0">
<rect width="24" height="24" fill="white"/>
</clipPath>
</defs>
</svg>
