<svg width="24" height="24" viewBox="0 0 24 24" fill="none" xmlns="http://www.w3.org/2000/svg">
<path d="M5.41937 13.9356C5.63305 13.9356 5.80647 14.1094 5.80647 14.3227H6.58066C6.58066 13.6824 6.05963 13.1614 5.41937 13.1614V12.3872H4.64518V13.1614H3.48389V14.3227C3.48389 14.9629 4.00492 15.484 4.64518 15.484H5.41937C5.63305 15.484 5.80647 15.6578 5.80647 15.8711V16.2582H4.64518C4.4315 16.2582 4.25808 16.0844 4.25808 15.8711H3.48389C3.48389 16.5113 4.00492 17.0324 4.64518 17.0324V17.8066H5.41937V17.0324H6.58066V15.8711C6.58066 15.2308 6.05963 14.7098 5.41937 14.7098H4.64518C4.4315 14.7098 4.25808 14.536 4.25808 14.3227V13.9356H5.41937Z" fill="#CAD6E2"/>
<path d="M11.6128 13.9355V17.8065H17.8063V15.7421L16.4515 13.9355H11.6128ZM17.0321 17.0323H12.387V14.7097H16.0644L17.0321 15.9999V17.0323Z" fill="#CAD6E2"/>
<path d="M22.3266 1.54839H21.2903V1.16129C21.2903 0.521032 20.7693 0 20.129 0H11.6129C10.9726 0 10.4516 0.521032 10.4516 1.16129V1.54839H9.41535L7.74194 5.73213V6.58064C7.74194 7.08464 8.06671 7.51045 8.51613 7.67071V12.6565C7.74503 11.5591 6.47226 10.8387 5.03226 10.8387C2.68452 10.8387 0.774194 12.749 0.774194 15.0968C0.774194 16.5368 1.49458 17.8095 2.59161 18.5806H1.16129C0.521032 18.5806 0 19.1017 0 19.7419V20.5161C0 21.1564 0.521032 21.6774 1.16129 21.6774H1.97458C1.94903 21.8025 1.93548 21.9321 1.93548 22.0645C1.93548 23.1317 2.80374 24 3.87097 24C4.93819 24 5.80645 23.1317 5.80645 22.0645C5.80645 21.9321 5.7929 21.8025 5.76735 21.6774H14.3617C14.3361 21.8025 14.3226 21.9321 14.3226 22.0645C14.3226 23.1317 15.1908 24 16.2581 24C17.3253 24 18.1935 23.1317 18.1935 22.0645C18.1935 21.9321 18.18 21.8025 18.1545 21.6774H18.1935C18.8338 21.6774 19.3548 21.1564 19.3548 20.5161V20.129H23.2258V7.67071C23.6752 7.51045 24 7.08464 24 6.58064V5.73213L22.3266 1.54839ZM21.8025 2.32258L23.0412 5.41935H20.0528L19.7481 3.87097H20.129C20.7693 3.87097 21.2903 3.34994 21.2903 2.70968V2.32258H21.8025ZM19.3548 6.58064C19.3548 6.79394 19.1814 6.96774 18.9677 6.96774H16.6452C16.4315 6.96774 16.2581 6.79394 16.2581 6.58064V6.19355H19.3548V6.58064ZM15.4839 6.58064C15.4839 6.79394 15.3105 6.96774 15.0968 6.96774H12.7742C12.5605 6.96774 12.3871 6.79394 12.3871 6.58064V6.19355H15.4839V6.58064ZM8.90323 6.96774C8.68955 6.96774 8.51613 6.79394 8.51613 6.58064V6.19355H11.6129V6.58064C11.6129 6.79394 11.4395 6.96774 11.2258 6.96774H8.90323ZM15.4839 3.87097V5.41935H12.4723L12.7819 3.87097H15.4839ZM18.96 3.87097L19.2697 5.41935H16.2581V3.87097H18.96ZM11.2258 1.16129C11.2258 0.948 11.3992 0.774194 11.6129 0.774194H20.129C20.3427 0.774194 20.5161 0.948 20.5161 1.16129V2.70968C20.5161 2.92297 20.3427 3.09677 20.129 3.09677H11.6129C11.3992 3.09677 11.2258 2.92297 11.2258 2.70968V1.16129ZM9.93948 2.32258H10.4516V2.70968C10.4516 3.34994 10.9726 3.87097 11.6129 3.87097H11.9923L11.6826 5.41935H8.70077L9.93948 2.32258ZM1.54839 15.0968C1.54839 13.176 3.1111 11.6129 5.03226 11.6129C6.95342 11.6129 8.51613 13.176 8.51613 15.0968C8.51613 17.0175 6.95342 18.5806 5.03226 18.5806C3.1111 18.5806 1.54839 17.0175 1.54839 15.0968ZM7.4729 18.5806C7.87819 18.2957 8.23123 17.9427 8.51613 17.5374V18.5806H7.4729ZM3.87097 23.2258C3.23071 23.2258 2.70968 22.7048 2.70968 22.0645C2.70968 21.4243 3.23071 20.9032 3.87097 20.9032C4.51123 20.9032 5.03226 21.4243 5.03226 22.0645C5.03226 22.7048 4.51123 23.2258 3.87097 23.2258ZM3.87097 20.129C3.24116 20.129 2.68606 20.436 2.33265 20.9032H1.16129C0.947613 20.9032 0.774194 20.7294 0.774194 20.5161V19.7419C0.774194 19.5286 0.947613 19.3548 1.16129 19.3548H10.0645V20.9032H5.40929C5.05587 20.436 4.50077 20.129 3.87097 20.129ZM16.2581 23.2258C15.6178 23.2258 15.0968 22.7048 15.0968 22.0645C15.0968 21.4243 15.6178 20.9032 16.2581 20.9032C16.8983 20.9032 17.4194 21.4243 17.4194 22.0645C17.4194 22.7048 16.8983 23.2258 16.2581 23.2258ZM18.5806 20.5161C18.5806 20.7294 18.4072 20.9032 18.1935 20.9032H17.7964C17.4426 20.436 16.8875 20.129 16.2581 20.129C15.6286 20.129 15.0732 20.436 14.7197 20.9032H10.8387V13.5484C10.8387 13.3351 11.0121 13.1613 11.2258 13.1613H16.6339C16.7586 13.1613 16.8766 13.2221 16.949 13.3231L18.5806 15.6077V20.5161ZM17.5788 12.8729C17.3613 12.5686 17.0079 12.3871 16.6339 12.3871H15.4839V12C15.4839 11.3597 16.0049 10.8387 16.6452 10.8387H19.7419C20.3822 10.8387 20.9032 11.3597 20.9032 12V19.3548H19.3548V15.36L17.5788 12.8729ZM21.6774 19.3548V12C21.6774 10.9328 20.8092 10.0645 19.7419 10.0645H16.6452C15.5779 10.0645 14.7097 10.9328 14.7097 12V12.3871H11.2258C10.5855 12.3871 10.0645 12.9081 10.0645 13.5484V18.5806H9.29032V7.74194H11.2258C11.5243 7.74194 11.7941 7.62542 12 7.44C12.2059 7.62581 12.4757 7.74194 12.7742 7.74194H15.0968C15.3952 7.74194 15.665 7.62542 15.871 7.44C16.0769 7.62581 16.3467 7.74194 16.6452 7.74194H18.9677C19.2662 7.74194 19.536 7.62542 19.7419 7.44C19.9479 7.62581 20.2177 7.74194 20.5161 7.74194H22.4516V19.3548H21.6774ZM22.8387 6.96774H20.5161C20.3025 6.96774 20.129 6.79394 20.129 6.58064V6.19355H23.2258V6.58064C23.2258 6.79394 23.0524 6.96774 22.8387 6.96774Z" fill="#CAD6E2"/>
<path d="M12 1.54834H12.7742V2.32253H12V1.54834Z" fill="#CAD6E2"/>
<path d="M13.5483 1.54834H18.1935V2.32253H13.5483V1.54834Z" fill="#CAD6E2"/>
<path d="M18.9678 1.54834H19.742V2.32253H18.9678V1.54834Z" fill="#CAD6E2"/>
<path d="M10.0645 11.6129H13.9354V8.51611H10.0645V11.6129ZM10.8386 9.29031H13.1612V10.8387H10.8386V9.29031Z" fill="#CAD6E2"/>
</svg>
